<?xml version="1.0" encoding="UTF-8"?>
<svg width="100" height="100" xmlns="http://www.w3.org/2000/svg">
 <g>
  <title>Layer 1</title>
  <rect x="20" y="20" width="60" height="60" id="svg_1"/>
  <rect x="28" y="84" width="4" height="10" id="svg_2"/>
  <rect x="36" y="84" width="4" height="10" id="svg_3"/>
  <rect x="44" y="84" width="4" height="10" id="svg_4"/>
  <rect x="52" y="84" width="4" height="10" id="svg_5"/>
  <rect x="60" y="84" width="4" height="10" id="svg_6"/>
  <rect x="68" y="84" width="4" height="10" id="svg_7"/>
  <rect x="76" y="84" width="4" height="10" id="svg_8"/>
  <rect x="20" y="84" width="4" height="10" id="svg_9"/>
  <rect x="28" y="6" width="4" height="10" id="svg_10"/>
  <rect x="36" y="6" width="4" height="10" id="svg_11"/>
  <rect x="44" y="6" width="4" height="10" id="svg_12"/>
  <rect x="52" y="6" width="4" height="10" id="svg_13"/>
  <rect x="60" y="6" width="4" height="10" id="svg_14"/>
  <rect x="68" y="6" width="4" height="10" id="svg_15"/>
  <rect x="76" y="6" width="4" height="10" id="svg_16"/>
  <rect x="20" y="6" width="4" height="10" id="svg_17"/>
  <rect x="6" y="28" width="10" height="4" id="svg_18"/>
  <rect x="6" y="36" width="10" height="4" id="svg_19"/>
  <rect x="6" y="44" width="10" height="4" id="svg_20"/>
  <rect x="6" y="52" width="10" height="4" id="svg_21"/>
  <rect x="6" y="60" width="10" height="4" id="svg_22"/>
  <rect x="6" y="68" width="10" height="4" id="svg_23"/>
  <rect x="6" y="76" width="10" height="4" id="svg_24"/>
  <rect x="6" y="20" width="10" height="4" id="svg_25"/>
  <rect x="84" y="28" width="10" height="4" id="svg_26"/>
  <rect x="84" y="36" width="10" height="4" id="svg_27"/>
  <rect x="84" y="44" width="10" height="4" id="svg_28"/>
  <rect x="84" y="52" width="10" height="4" id="svg_29"/>
  <rect x="84" y="60" width="10" height="4" id="svg_30"/>
  <rect x="84" y="68" width="10" height="4" id="svg_31"/>
  <rect x="84" y="76" width="10" height="4" id="svg_32"/>
  <rect x="84" y="20" width="10" height="4" id="svg_33"/>
 </g>
</svg>