<?xml version="1.0" encoding="UTF-8"?>
<svg width="84.033" height="100" xmlns="http://www.w3.org/2000/svg">
 <g>
  <title>Layer 1</title>
  <path fill="none" d="m6.511,50.495998c-2.082,0 -3.769,1.666 -3.769,3.723999l7.609,34.725002l-7.607,-34.724998c0,-2.057003 1.687,-3.724003 3.767,-3.724003z" id="svg_45"/>
  <path fill="none" d="m69.913002,92.667999h0.001999c2.080002,0 3.766998,-1.667999 3.766998,-3.723999l7.607002,-34.724998l-7.609001,34.724998c0,2.056 -1.684998,3.723999 -3.766998,3.723999z" id="svg_46"/>
  <path fill="none" d="m41.455002,38.903c6.959,0 12.688999,-7.684999 13.429001,-17.561001c0.092999,-0.638 0.146,-1.291 0.153999,-1.952999l-2.173,2.494999c1.199001,-2.655001 -3.07,-9.407 -3.07,-9.407c-7.189999,5.201 -17.882999,0 -17.882999,0c-3.229,1.273 -1.699001,10.348 -1.699001,10.348999c-0.806,-0.561998 -1.543999,-0.855 -2.146999,-1.004999c0.887999,9.645 6.543999,17.082001 13.389,17.082001z" id="svg_47"/>
  <path d="m26.158001,21.261c0.011,0.146 0.023998,0.291 0.036999,0.436001c0.976,11.041998 7.437,19.572001 15.258999,19.572001c7.928001,0 14.454002,-8.753002 15.298,-20.002001c0.116001,-0.808001 0.178001,-1.635 0.178001,-2.478001c0,-0.843 -0.062,-1.668999 -0.178001,-2.477999c-1.134998,-7.820001 -7.550999,-13.811001 -15.296997,-13.811001s-14.165001,5.995 -15.297001,13.816999c-0.117001,0.806 -0.176001,1.631001 -0.176001,2.472c0,0.342001 0.013,0.679001 0.031,1.016001c0.029999,0.490999 0.077,0.978001 0.145,1.455999zm5.754,-8.783c0,0 10.692999,5.201001 17.882998,0c0,0 4.27,6.752 3.070004,9.407001l2.172997,-2.495001c-0.008999,0.662001 -0.061996,1.315001 -0.153999,1.953001c-0.739998,9.875999 -6.469997,17.560999 -13.428997,17.560999c-6.845001,0 -12.500002,-7.437 -13.389002,-17.081999c0.603001,0.15 1.341,0.442999 2.146999,1.004999c0,-0.000999 -1.529999,-9.075999 1.699001,-10.349l0,0z" id="svg_48"/>
  <path d="m43.995998,71.510002c-0.050999,-0.248001 -0.150002,-0.477997 -0.282001,-0.683998c-0.000999,-0.001999 -0.001999,-0.005005 -0.003998,-0.008003c-0.007,-0.011002 -0.012001,-0.020996 -0.018002,-0.030998c-0.046001,-0.068001 -0.102001,-0.126999 -0.153999,-0.188004c-0.032001,-0.035995 -0.059002,-0.076996 -0.092999,-0.111c-0.033001,-0.032997 -0.074001,-0.060997 -0.110001,-0.090996c-0.062,-0.054001 -0.121002,-0.110001 -0.189003,-0.156998c-0.011997,-0.008003 -0.024998,-0.013 -0.037998,-0.021004c-0.206001,-0.133003 -0.436001,-0.232002 -0.683998,-0.283997c-0.131001,-0.026001 -0.268002,-0.040001 -0.407001,-0.040001c-0.710999,0 -1.334,0.368996 -1.694,0.923996c-0.206001,0.316002 -0.327999,0.693001 -0.327999,1.098999c0,1.116005 0.904999,2.022003 2.021999,2.022003s2.021,-0.905998 2.021,-2.022003c-0.000999,-0.140999 -0.014,-0.276001 -0.042,-0.407997z" id="svg_49"/>
  <path d="m73.950996,94.245003h-63.867996c-0.900002,0 -1.627,0.729004 -1.627,1.626999c0,0.898003 0.728,1.627998 1.627,1.627998h63.869003c0.896996,0 1.626999,-0.728996 1.626999,-1.627998c-0.003006,-0.897003 -0.730003,-1.626999 -1.628006,-1.626999z" id="svg_50"/>
  <g id="svg_51">
   <path fill="none" d="m77.523003,50.495998h-6.586998h-0.484001h-23.017002h-3.702999h-3.997002h-3.571999h-22.583003h-0.315h-6.754c-2.082,0 -3.769,1.666 -3.769,3.723999l7.609,34.725002c0,2.056 1.685,3.723999 3.766,3.723999h55.795004h0.001999c2.079994,0 3.766998,-1.667999 3.766998,-3.723999l7.606995,-34.725002c0.001007,-2.056999 -1.684998,-3.723999 -3.764992,-3.723999z" id="svg_52"/>
   <path d="m77.865997,49.880001h-7.227997h-0.536003c-3.167,-5.699001 -8.990002,-9.717999 -15.813,-10.34c-0.081001,3.687 -5.544003,6.661999 -12.275002,6.661999c-6.728996,0 -12.191999,-2.974998 -12.271999,-6.661999c-6.822001,0.623001 -12.645998,4.641998 -15.812999,10.34h-0.37h-7.390998c-2.103,0 -3.804,1.702999 -3.804,3.803001l7.605,35.797001c0,2.100998 1.703,3.803001 3.805,3.803001h56.484003c2.100998,0 3.804001,-1.702003 3.804001,-3.804001l7.606995,-35.796001c0.000999,-2.099003 -1.701996,-3.803001 -3.803001,-3.803001zm-4.183998,39.063999c0,2.056 -1.686996,3.723999 -3.766998,3.723999h-0.001999h-55.795002c-2.082,0 -3.766,-1.667999 -3.766,-3.723999l-7.61,-34.723999c0,-2.057999 1.687,-3.723999 3.769,-3.723999h6.753h0.315001h22.582997h3.572002h3.996998h3.702999h23.016998h0.484001h6.587006c2.079994,0 3.766998,1.667 3.766998,3.723999l-7.607002,34.723999z" id="svg_53"/>
  </g>
 </g>
</svg>