<?xml version="1.0" encoding="UTF-8" standalone="no"?>
<!-- Created with Inkscape (http://www.inkscape.org/) -->
<svg xmlns:dc="http://purl.org/dc/elements/1.1/" xmlns:cc="http://creativecommons.org/ns#" xmlns:rdf="http://www.w3.org/1999/02/22-rdf-syntax-ns#" xmlns:svg="http://www.w3.org/2000/svg" xmlns="http://www.w3.org/2000/svg" xmlns:inkscape="http://www.inkscape.org/namespaces/inkscape" version="1.1" width="738.3125" height="282.625" id="svg2" xml:space="preserve"><metadata id="metadata8"><rdf:RDF><cc:Work rdf:about=""><dc:format>image/svg+xml</dc:format><dc:type rdf:resource="http://purl.org/dc/dcmitype/StillImage"/></cc:Work></rdf:RDF></metadata><defs id="defs6"/><g transform="matrix(1.25,0,0,-1.25,0,282.625)" id="g10"><g transform="scale(0.1,0.1)" id="g12"><path d="m 885.406,1005.42 c -2.101,0 -3.496,2.44 -4.195,5.58 l -3.848,20.28 c -1.043,6.3 -7.34,11.54 -15.726,11.88 l -40.899,1.75 c -2.445,0 -4.894,-2.79 -4.894,-6.29 l -0.352,-81.796 0.352,-80.39 c 0,-8.739 5.246,-14.684 11.535,-15.731 l 14.332,-2.101 c 3.148,-0.348 5.594,-2.098 5.594,-3.848 0,-2.086 -2.446,-2.793 -5.594,-2.793 l -81.094,0 c -3.144,0 -5.594,0.707 -5.594,2.453 0,2.09 2.45,3.84 5.594,4.188 l 14.328,2.101 c 6.297,1.047 11.535,6.992 11.535,15.731 l 0.352,80.39 -0.352,81.796 c 0,3.5 -2.445,6.29 -4.894,6.29 l -40.898,-1.75 c -8.387,-0.34 -14.676,-5.58 -15.727,-11.88 L 721.117,1011 c -0.703,-3.14 -2.097,-5.58 -3.847,-5.58 -2.094,0 -2.797,2.44 -2.797,5.58 l 0,46.5 c 0,2.79 2.445,4.19 5.246,4.19 l 162.89,0 c 2.797,0 5.243,-1.4 5.243,-4.19 l 0,-46.5 c 0,-3.14 -0.7,-5.58 -2.446,-5.58" inkscape:connector-curvature="0" id="path14" style="fill:#333333;fill-opacity:1;fill-rule:nonzero;stroke:none"/><path d="m 1159.45,851.961 -74.1,0 c -3.15,0 -5.59,0.707 -5.59,2.453 0,2.09 2.79,3.484 5.59,4.188 l 7.34,2.101 c 6.29,1.746 11.53,6.992 11.53,15.731 l 0.35,74.105 c 0,1.395 -1.39,2.438 -2.79,2.438 l -93.68,0 c -1.4,0 -2.45,-1.043 -2.45,-2.438 l 0.35,-74.105 c 0,-8.387 5.24,-14.684 11.54,-15.731 l 14.33,-2.101 c 3.14,-0.348 5.59,-2.098 5.59,-3.848 0,-2.086 -2.45,-2.793 -5.59,-2.793 l -81.097,0 c -3.152,0 -5.597,0.707 -5.597,2.453 0,2.09 2.445,3.84 5.597,4.188 l 14.329,2.101 c 6.289,1.047 11.535,6.992 11.535,15.731 l 0.351,80.742 -0.351,80.054 c 0,8.73 -5.246,14.67 -11.535,15.73 l -14.329,2.09 c -3.152,0.35 -5.597,2.1 -5.597,3.84 0,2.11 2.445,2.8 5.597,2.8 l 81.097,0 c 3.14,0 5.59,-0.69 5.59,-2.44 0,-2.1 -2.45,-3.85 -5.59,-4.2 l -14.33,-2.09 c -6.3,-1.06 -11.54,-7.35 -11.54,-15.73 l -0.35,-67.125 c 0,-1.394 1.05,-2.437 2.45,-2.437 l 94.02,0 c 1.41,0 2.45,1.043 2.45,2.437 l -0.35,67.125 c 0,8.73 -5.24,14.67 -11.53,15.73 l -14.33,2.09 c -3.15,0.35 -5.59,2.1 -5.59,3.84 0,2.11 2.44,2.8 5.59,2.8 l 81.09,0 c 3.15,0 5.59,-0.69 5.59,-2.44 0,-2.1 -2.44,-3.85 -5.59,-4.2 l -14.33,-2.09 c -6.29,-1.06 -11.53,-7.35 -11.53,-15.73 l -0.35,-80.054 0.35,-80.742 c 0,-8.387 5.24,-14.684 11.53,-15.731 l 14.33,-2.101 c 3.15,-0.348 5.59,-2.098 5.59,-3.848 0,-2.086 -2.44,-2.793 -5.59,-2.793" inkscape:connector-curvature="0" id="path16" style="fill:#333333;fill-opacity:1;fill-rule:nonzero;stroke:none"/><path d="m 1388.75,855.809 c -0.35,-2.098 -2.45,-3.848 -4.89,-3.848 l -141.57,0 c -3.15,0 -5.59,0.707 -5.59,2.453 0,2.09 2.44,3.484 5.59,4.188 6.29,1.398 10.83,6.992 10.83,15.734 l 0.36,82.84 -0.36,80.054 c 0,8.73 -5.24,14.67 -11.53,15.73 l -14.33,2.09 c -3.15,0.35 -5.6,2.1 -5.6,3.84 0,2.11 2.45,2.8 5.6,2.8 l 154.15,0 c 2.45,0 3.84,-1.75 3.84,-4.19 l 3.15,-47.89 c 0.35,-3.15 -1.04,-4.9 -2.79,-4.9 -1.4,0 -3.15,1.05 -4.2,3.85 -12.23,31.46 -20.62,39.15 -48.93,39.15 l -41.25,0 c -4.55,0 -8.75,-3.84 -8.75,-8.04 l -0.34,-66.76 c 0,-1.398 1.05,-2.449 2.45,-2.449 l 66.06,1.746 c 2.1,0 3.49,-1.398 3.49,-3.496 l 0,-14.68 c 0,-2.097 -1.39,-3.492 -3.49,-3.492 l -66.42,1.746 c -1.39,0 -2.09,-1.398 -2.09,-2.793 l 0.34,-77.258 c 0,-3.496 3.16,-6.289 6.65,-6.289 l 49.99,0.696 c 36.35,0.351 42.99,17.129 50.33,44.043 0.7,2.8 3.15,4.55 4.9,4.55 2.09,0 3.84,-2.101 2.79,-8.046 l -8.39,-51.379" inkscape:connector-curvature="0" id="path18" style="fill:#333333;fill-opacity:1;fill-rule:nonzero;stroke:none"/><path d="m 153.102,509.754 c 0,-2.801 -2.793,-4.199 -5.247,-4.547 -13.281,-1.398 -36.351,-6.289 -55.9253,-6.289 C 42.9922,498.918 0,533.172 0,607.629 c 0,66.766 40.1953,108.004 88.0859,108.004 19.5741,0 40.1951,-3.496 59.7691,-4.891 2.102,0 4.196,-2.793 4.196,-4.543 l 0,-54.179 c 0,-3.141 -1.395,-4.891 -2.793,-4.891 -1.746,0 -2.797,1.394 -3.496,3.836 -8.387,34.609 -22.02,49.992 -56.9768,49.992 -49.6329,0 -55.5782,-61.875 -55.5782,-98.926 0,-38.097 11.8868,-88.437 59.4258,-88.437 39.1442,0 48.2382,15.73 56.2732,48.242 0.352,2.098 2.102,3.144 3.496,3.144 1.75,0 3.145,-1.046 3.145,-4.187 l -2.445,-51.039" inkscape:connector-curvature="0" id="path20" style="fill:#333333;fill-opacity:1;fill-rule:nonzero;stroke:none"/><path d="m 392.891,506.258 c -0.348,-2.098 -2.446,-3.844 -4.891,-3.844 l -141.57,0 c -3.145,0 -5.594,0.699 -5.594,2.449 0,2.09 2.449,3.485 5.594,4.188 6.289,1.398 10.836,6.992 10.836,15.734 l 0.351,82.844 -0.351,80.047 c 0,8.742 -5.243,14.676 -11.532,15.73 l -14.332,2.094 c -3.148,0.348 -5.597,2.098 -5.597,3.844 0,2.101 2.449,2.793 5.597,2.793 l 154.149,0 c 2.449,0 3.844,-1.746 3.844,-4.188 l 3.148,-47.89 c 0.348,-3.145 -1.047,-4.891 -2.797,-4.891 -1.394,0 -3.144,1.043 -4.195,3.844 -12.235,31.457 -20.625,39.152 -48.934,39.152 l -41.25,0 c -4.543,0 -8.742,-3.848 -8.742,-8.047 l -0.344,-66.758 c 0,-1.398 1.047,-2.453 2.446,-2.453 l 66.062,1.75 c 2.102,0 3.496,-1.398 3.496,-3.496 l 0,-14.68 c 0,-2.097 -1.394,-3.496 -3.496,-3.496 l -66.414,1.75 c -1.398,0 -2.094,-1.398 -2.094,-2.793 l 0.344,-77.257 c 0,-3.496 3.152,-6.289 6.648,-6.289 l 49.985,0.695 c 36.351,0.351 42.992,17.129 50.332,44.043 0.703,2.801 3.148,4.551 4.898,4.551 2.094,0 3.84,-2.098 2.793,-8.047 l -8.39,-51.379" inkscape:connector-curvature="0" id="path22" style="fill:#333333;fill-opacity:1;fill-rule:nonzero;stroke:none"/><path d="m 673.926,705.5 -10.836,-2.094 c -6.289,-1.054 -11.531,-6.988 -11.531,-15.379 l -1.051,-81.105 0.699,-103.809 c 0,-2.449 -1.398,-4.195 -3.496,-4.195 l -3.145,0 c -1.75,0 -3.144,1.043 -4.195,2.449 L 519.078,660.762 c -1.75,2.09 -4.195,1.043 -4.195,-1.055 l 3.144,-129.328 c 0.352,-13.984 1.75,-18.184 4.196,-20.625 2.097,-2.449 4.547,-2.801 4.547,-4.891 0,-1.75 -1.399,-2.449 -4.547,-2.449 l -50.332,0 c -3.149,0 -5.598,0.699 -5.598,2.449 0,2.09 2.801,3.485 5.598,4.188 l 10.836,2.101 c 6.289,1.043 11.183,7.344 11.531,15.731 l 3.148,129.328 0,29.012 c 0,5.597 -1.746,15.031 -8.039,16.781 l -12.586,3.141 c -2.797,0.703 -6.293,2.453 -6.293,4.55 0,1.75 2.446,2.442 5.598,2.442 l 33.555,0 c 2.445,0 5.242,-0.692 6.64,-2.793 L 625.344,566.023 c 2.445,-3.144 6.289,-1.734 6.289,1.407 l 0.351,39.492 -1.05,80.754 c 0,8.742 -5.246,14.676 -11.536,15.73 l -12.582,2.094 c -3.148,0.699 -5.593,2.098 -5.593,4.195 0,1.75 2.445,2.442 5.593,2.442 l 67.11,0 c 3.148,0 5.597,-0.692 5.597,-2.442 0,-2.097 -2.449,-3.496 -5.597,-4.195" inkscape:connector-curvature="0" id="path24" style="fill:#333333;fill-opacity:1;fill-rule:nonzero;stroke:none"/><path d="m 908.473,655.871 c -2.102,0 -3.496,2.438 -4.196,5.586 l -3.847,20.27 c -1.043,6.3 -7.34,11.543 -15.727,11.886 l -40.898,1.746 c -2.446,0 -4.895,-2.793 -4.895,-6.289 l -0.351,-81.797 0.351,-80.39 c 0,-8.738 5.246,-14.688 11.535,-15.731 l 14.332,-2.101 c 3.149,-0.352 5.594,-2.098 5.594,-3.844 0,-2.094 -2.445,-2.793 -5.594,-2.793 l -81.093,0 c -3.145,0 -5.594,0.699 -5.594,2.449 0,2.09 2.449,3.836 5.594,4.188 l 14.328,2.101 c 6.297,1.043 11.535,6.993 11.535,15.731 l 0.351,80.39 -0.351,81.797 c 0,3.496 -2.445,6.289 -4.895,6.289 l -40.898,-1.746 c -8.387,-0.343 -14.676,-5.586 -15.727,-11.886 l -3.843,-20.27 c -0.704,-3.148 -2.098,-5.586 -3.848,-5.586 -2.094,0 -2.797,2.438 -2.797,5.586 l 0,46.492 c 0,2.793 2.445,4.188 5.246,4.188 l 162.891,0 c 2.797,0 5.242,-1.395 5.242,-4.188 l 0,-46.492 c 0,-3.148 -0.699,-5.586 -2.445,-5.586" inkscape:connector-curvature="0" id="path26" style="fill:#333333;fill-opacity:1;fill-rule:nonzero;stroke:none"/><path d="m 1177.97,505.555 c -5.59,-2.098 -12.58,-3.141 -20.62,-3.141 l -30.41,0 c -3.15,0 -4.55,1.746 -5.59,3.844 l -43.7,84.242 c -2.79,5.242 -5.24,10.133 -11.88,10.133 l -31.11,0 c -3.14,0 -5.95,-2.442 -5.95,-5.594 l 0.36,-68.156 c 0,-8.387 5.59,-14.336 11.88,-15.731 l 7.34,-1.75 c 2.8,-0.703 5.59,-2.449 5.59,-4.539 0,-1.75 -2.44,-2.449 -5.59,-2.449 l -59.423,0 c -3.144,0 -5.59,0.699 -5.59,2.449 0,2.09 2.446,3.485 5.59,4.188 6.289,1.398 10.836,6.992 10.836,15.734 l 0.347,83.887 -0.347,79.355 c 0,8.731 -5.246,14.325 -11.535,15.379 L 973.84,705.5 c -3.152,0.348 -5.598,2.098 -5.598,3.844 0,2.101 2.797,2.793 5.942,2.793 l 109.406,0 c 34.96,0 59.08,-20.965 59.08,-49.629 0,-29.012 -20.62,-51.035 -49.64,-57.672 -2.09,-0.356 -2.09,-1.75 -0.69,-2.805 2.79,-2.09 6.29,-6.289 12.93,-16.426 l 42.64,-65.714 c 3.5,-5.243 10.84,-9.09 17.83,-9.09 4.19,0 5.59,0.351 10.49,1.394 2.09,0.352 4.19,-0.691 4.19,-3.144 0,-1.395 -1.05,-2.793 -2.45,-3.496 z m -103.11,192.609 -36.7,0 c -4.55,0 -9.09,-3.496 -9.09,-8.047 l -0.36,-69.562 c 0,-3.141 3.15,-6.289 6.29,-6.289 l 25.52,0 c 31.12,0 50.69,12.238 50.69,45.793 0,22.023 -14.68,38.105 -36.35,38.105" inkscape:connector-curvature="0" id="path28" style="fill:#333333;fill-opacity:1;fill-rule:nonzero;stroke:none"/><path d="m 1388.75,506.258 c -0.35,-2.098 -2.45,-3.844 -4.89,-3.844 l -141.57,0 c -3.15,0 -5.59,0.699 -5.59,2.449 0,2.09 2.44,3.485 5.59,4.188 6.29,1.398 10.83,6.992 10.83,15.734 l 0.36,82.844 -0.36,80.047 c 0,8.742 -5.24,14.676 -11.53,15.73 l -14.33,2.094 c -3.15,0.348 -5.6,2.098 -5.6,3.844 0,2.101 2.45,2.793 5.6,2.793 l 154.15,0 c 2.45,0 3.84,-1.746 3.84,-4.188 l 3.15,-47.89 c 0.35,-3.145 -1.04,-4.891 -2.79,-4.891 -1.4,0 -3.15,1.043 -4.2,3.844 -12.23,31.457 -20.62,39.152 -48.93,39.152 l -41.25,0 c -4.55,0 -8.75,-3.848 -8.75,-8.047 l -0.34,-66.758 c 0,-1.398 1.05,-2.453 2.45,-2.453 l 66.06,1.75 c 2.1,0 3.49,-1.398 3.49,-3.496 l 0,-14.68 c 0,-2.097 -1.39,-3.496 -3.49,-3.496 l -66.42,1.75 c -1.39,0 -2.09,-1.398 -2.09,-2.793 l 0.34,-77.257 c 0,-3.496 3.16,-6.289 6.65,-6.289 l 49.99,0.695 c 36.35,0.351 42.99,17.129 50.33,44.043 0.7,2.801 3.15,4.551 4.9,4.551 2.09,0 3.84,-2.098 2.79,-8.047 l -8.39,-51.379" inkscape:connector-curvature="0" id="path30" style="fill:#333333;fill-opacity:1;fill-rule:nonzero;stroke:none"/><path d="m 887.152,305.613 c -1.394,0 -3.144,1.047 -4.191,3.848 -12.238,31.457 -20.625,39.152 -48.938,39.152 l -41.25,0 c -4.539,0 -8.734,-3.847 -8.734,-8.047 l -0.351,-66.757 c 0,-1.395 1.05,-2.454 2.445,-2.454 l 66.066,1.75 c 2.098,0 3.496,-1.394 3.496,-3.496 l 0,-14.679 c 0,-2.098 -1.398,-3.496 -3.496,-3.496 l -66.418,1.75 c -1.394,0 -2.093,-1.395 -2.093,-2.793 l 0.351,-73.055 c 0,-8.391 5.59,-14.691 11.883,-15.734 l 10.836,-2.098 c 2.793,-0.707 5.59,-2.102 5.59,-4.192 0,-1.75 -2.446,-2.453 -5.59,-2.453 l -62.918,0 c -3.145,0 -5.594,0.703 -5.594,2.453 0,2.09 2.449,3.485 5.594,4.192 6.289,1.394 10.832,6.992 10.832,15.73 l 0.351,82.844 -0.351,80.047 c 0,8.738 -5.242,14.676 -11.531,15.73 l -14.332,2.09 c -3.149,0.352 -5.594,2.102 -5.594,3.848 0,2.102 2.445,2.793 5.594,2.793 l 154.152,0 c 2.445,0 3.84,-1.746 3.84,-4.188 l 3.152,-47.89 c 0.344,-3.145 -1.051,-4.895 -2.801,-4.895" inkscape:connector-curvature="0" id="path32" style="fill:#333333;fill-opacity:1;fill-rule:nonzero;stroke:none"/><path d="m 1045.84,149.367 c -66.41,0 -87.735,49.637 -87.735,107.313 0,55.925 23.418,109.406 88.785,109.406 66.41,0 87.74,-49.629 87.74,-107.305 0,-55.929 -23.42,-109.414 -88.79,-109.414 z m -1.04,202.391 c -47.198,0 -54.886,-49.289 -54.886,-89.485 0,-38.808 4.891,-98.57 58.026,-98.57 47.19,0 54.88,49.285 54.88,89.481 0,38.796 -4.89,98.574 -58.02,98.574" inkscape:connector-curvature="0" id="path34" style="fill:#333333;fill-opacity:1;fill-rule:nonzero;stroke:none"/><path d="m 1413.26,156.004 c -5.59,-2.098 -12.58,-3.145 -20.63,-3.145 l -30.41,0 c -3.14,0 -4.54,1.75 -5.59,3.852 l -43.7,84.238 c -2.79,5.242 -5.24,10.137 -11.88,10.137 l -31.11,0 c -3.14,0 -5.94,-2.445 -5.94,-5.598 l 0.35,-68.152 c 0,-8.391 5.59,-14.336 11.88,-15.734 l 7.34,-1.75 c 2.8,-0.704 5.59,-2.45 5.59,-4.54 0,-1.75 -2.44,-2.453 -5.59,-2.453 l -59.42,0 c -3.14,0 -5.59,0.703 -5.59,2.453 0,2.09 2.45,3.485 5.59,4.192 6.29,1.394 10.83,6.992 10.83,15.73 l 0.36,83.887 -0.36,79.356 c 0,8.73 -5.24,14.324 -11.53,15.378 l -14.33,2.09 c -3.15,0.352 -5.59,2.102 -5.59,3.848 0,2.102 2.79,2.793 5.94,2.793 l 109.41,0 c 34.95,0 59.07,-20.965 59.07,-49.625 0,-29.016 -20.62,-51.039 -49.63,-57.676 -2.1,-0.355 -2.1,-1.75 -0.7,-2.805 2.79,-2.089 6.29,-6.289 12.93,-16.425 l 42.65,-65.715 c 3.49,-5.242 10.84,-9.09 17.82,-9.09 4.19,0 5.6,0.352 10.49,1.395 2.1,0.355 4.19,-0.692 4.19,-3.141 0,-1.399 -1.05,-2.793 -2.44,-3.5 z m -103.12,192.609 -36.7,0 c -4.55,0 -9.09,-3.496 -9.09,-8.047 L 1264,271.004 c 0,-3.145 3.14,-6.289 6.29,-6.289 l 25.51,0 c 31.12,0 50.7,12.238 50.7,45.793 0,22.019 -14.69,38.105 -36.36,38.105" inkscape:connector-curvature="0" id="path36" style="fill:#333333;fill-opacity:1;fill-rule:nonzero;stroke:none"/><path d="m 1747.4,673.496 -153.3,0 c -5.94,0 -10.57,1.316 -10.57,4.629 0,3.965 4.63,7.266 10.57,7.93 l 27.09,3.965 c 11.9,1.984 21.81,13.21 21.81,29.726 l 0.66,151.981 -0.66,152.633 c 0,16.52 -10.57,27.1 -21.81,29.08 l -22.46,3.96 c -5.29,0.65 -10.57,3.3 -10.57,7.27 0,3.96 4.62,5.28 10.57,5.28 l 93.16,0 c 5.29,0 9.26,-2.64 9.26,-7.93 l -2.65,-43.6 -0.66,-146.693 0.66,-151.981 c 0,-16.516 9.91,-27.742 21.81,-29.726 l 27.09,-3.965 c 5.94,-0.664 10.57,-3.965 10.57,-7.278 0,-3.965 -4.63,-5.281 -10.57,-5.281 z m -83.92,459.894 c -17.18,0 -30.39,12.55 -30.39,29.07 0,21.81 19.82,39.65 40.3,39.65 17.84,0 31.06,-11.9 31.06,-29.07 0,-21.16 -19.82,-39.65 -40.97,-39.65" inkscape:connector-curvature="0" id="path38" style="fill:#333333;fill-opacity:1;fill-rule:nonzero;stroke:none"/><path d="m 2159.71,673.496 -118.94,0 c -5.95,0 -10.57,1.316 -10.57,4.629 0,3.965 4.62,6.602 10.57,7.93 11.9,2.636 20.48,13.211 20.48,29.726 l 0.67,155.946 0,70.695 c 0,59.468 -29.07,93.838 -93.17,93.838 -37,0 -102.42,-29.74 -102.42,-81.28 l 0,-83.253 0.66,-151.981 c 0,-16.516 9.92,-27.742 21.81,-29.726 l 27.09,-3.965 c 5.95,-0.664 10.57,-3.965 10.57,-7.278 0,-3.965 -4.62,-5.281 -10.57,-5.281 l -153.3,0 c -5.95,0 -10.57,1.316 -10.57,4.629 0,3.965 4.62,7.266 10.57,7.93 l 27.09,3.965 c 11.9,1.984 21.81,13.21 21.81,29.726 l 0.66,151.981 -0.66,152.633 c 0,16.52 -9.25,27.1 -21.81,29.08 l -29.07,3.96 c -5.29,0.65 -10.57,3.3 -10.57,7.27 0,3.96 4.62,5.28 10.57,5.28 l 79.95,0 c 5.95,0 8.59,-2.64 10.57,-7.27 l 17.19,-37.66 c 1.31,-2.64 3.96,-3.3 5.94,-0.66 27.09,34.36 65.42,52.2 112.99,52.2 86.56,0 128.85,-52.86 128.85,-121.58 l 0,-83.253 0.66,-151.981 c 0,-15.859 10.58,-27.742 22.47,-29.726 l 20.48,-3.965 c 5.29,-1.328 10.58,-3.965 10.58,-7.93 0,-3.313 -4.63,-4.629 -10.58,-4.629" inkscape:connector-curvature="0" id="path40" style="fill:#333333;fill-opacity:1;fill-rule:nonzero;stroke:none"/><path d="m 2447.76,1036.91 -120.26,1.32 c -4.62,0 -9.25,-5.28 -9.25,-11.88 l -1.32,-154.623 1.32,-151.981 c 0,-16.516 9.25,-27.742 21.14,-29.726 l 27.09,-3.965 c 5.95,-0.664 11.24,-3.965 11.24,-7.278 0,-3.965 -4.63,-5.281 -10.58,-5.281 l -153.29,0 c -5.95,0 -11.23,1.316 -11.23,4.629 0,3.965 5.28,7.266 10.57,7.93 l 27.09,3.965 c 12.55,1.984 21.81,13.21 21.81,29.726 l 1.32,151.981 -1.32,154.623 c 0,6.6 -3.97,11.88 -8.59,11.88 l -120.26,0 c -3.31,0 -6.62,2.65 -6.62,5.95 l 0,19.17 c 0,3.96 2.65,6.6 6.62,6.6 l 115.63,0 c 7.27,0 13.22,5.3 17.84,15.19 l 36.34,74.02 c 1.99,3.3 4.63,5.95 7.93,5.95 2.64,0 5.95,-1.99 5.95,-7.93 l 0,-87.23 130.17,0 c 4.62,0 6.61,-1.32 6.61,-5.28 l 0,-22.47 c 0,-3.97 -2.64,-5.29 -5.95,-5.29" inkscape:connector-curvature="0" id="path42" style="fill:#333333;fill-opacity:1;fill-rule:nonzero;stroke:none"/><path d="m 2741.77,874.363 -222.02,0 c -10.57,0 -19.82,-8.582 -19.82,-18.492 0,-115.637 72.02,-155.285 130.83,-155.285 42.29,0 83.26,31.719 101.76,61.457 1.32,1.98 3.96,3.297 5.94,1.316 l 13.22,-10.578 c 1.98,-1.316 1.98,-3.301 0.66,-5.281 -25.11,-45.598 -74,-80.617 -138.76,-80.617 -86.56,0 -175.76,53.527 -175.76,206.828 0,125.539 79.95,202.849 175.76,202.849 74.01,0 149.33,-45.6 149.33,-173.122 0,-13.868 -9.91,-29.075 -21.14,-29.075 z m -128.19,173.777 c -60.13,0 -101.1,-42.94 -110.35,-127.515 -1.32,-10.578 3.97,-16.523 13.88,-17.187 0,0 46.25,-0.657 66.07,-0.657 l 46.92,0 c 17.84,0 38.98,1.321 49.56,4.621 17.84,4.629 23.12,13.875 23.12,31.063 0,82.585 -41.62,109.675 -89.2,109.675" inkscape:connector-curvature="0" id="path44" style="fill:#333333;fill-opacity:1;fill-rule:nonzero;stroke:none"/><path d="m 3071.48,979.434 c -0.66,-5.293 -3.31,-10.579 -7.28,-10.579 -2.63,0 -5.93,3.301 -5.93,7.27 -2.65,44.925 -16.53,60.135 -60.14,60.135 -37,0 -102.41,-29.74 -102.41,-81.28 l 0,-83.253 0.66,-151.981 c 0,-16.516 9.91,-27.742 21.8,-29.726 l 27.09,-3.965 c 5.95,-0.664 10.57,-3.965 10.57,-7.278 0,-3.965 -4.62,-5.281 -10.57,-5.281 l -153.29,0 c -5.95,0 -10.57,1.316 -10.57,4.629 0,3.965 4.62,7.266 10.57,7.93 l 27.09,3.965 c 11.89,1.984 21.81,13.21 21.81,29.726 l 0.65,151.981 -0.65,152.633 c 0,16.52 -9.26,27.1 -21.81,29.08 l -29.07,3.96 c -5.29,0.65 -10.58,3.3 -10.58,7.27 0,3.96 4.63,5.28 10.58,5.28 l 79.95,0 c 5.94,0 8.59,-2.64 10.57,-7.27 l 17.18,-37.66 c 1.32,-2.64 3.96,-3.3 5.95,-0.66 27.09,34.36 65.41,52.2 112.99,52.2 11.89,0 33.03,-1.98 46.91,-5.95 10.57,-2.64 17.84,-6.61 17.18,-12.56 l -9.25,-78.616" inkscape:connector-curvature="0" id="path46" style="fill:#333333;fill-opacity:1;fill-rule:nonzero;stroke:none"/><path d="m 3475.2,673.496 -118.93,0 c -5.95,0 -10.58,1.316 -10.58,4.629 0,3.965 4.63,6.602 10.58,7.93 11.89,2.636 20.47,13.211 20.47,29.726 l 0.67,155.946 0,70.695 c 0,59.468 -29.07,93.838 -93.17,93.838 -37,0 -102.42,-29.74 -102.42,-81.28 l 0,-83.253 0.66,-151.981 c 0,-16.516 9.92,-27.742 21.81,-29.726 l 27.09,-3.965 c 5.95,-0.664 10.58,-3.965 10.58,-7.278 0,-3.965 -4.63,-5.281 -10.58,-5.281 l -153.29,0 c -5.96,0 -10.57,1.316 -10.57,4.629 0,3.965 4.61,7.266 10.57,7.93 l 27.09,3.965 c 11.89,1.984 21.8,13.21 21.8,29.726 l 0.66,151.981 -0.66,152.633 c 0,16.52 -9.25,27.1 -21.8,29.08 l -29.08,3.96 c -5.28,0.65 -10.57,3.3 -10.57,7.27 0,3.96 4.63,5.28 10.57,5.28 l 79.96,0 c 5.94,0 8.58,-2.64 10.56,-7.27 l 17.19,-37.66 c 1.31,-2.64 3.97,-3.3 5.94,-0.66 27.09,34.36 65.42,52.2 112.99,52.2 86.56,0 128.85,-52.86 128.85,-121.58 l 0,-83.253 0.66,-151.981 c 0,-15.859 10.58,-27.742 22.47,-29.726 l 20.48,-3.965 c 5.29,-1.328 10.58,-3.965 10.58,-7.93 0,-3.313 -4.62,-4.629 -10.58,-4.629" inkscape:connector-curvature="0" id="path48" style="fill:#333333;fill-opacity:1;fill-rule:nonzero;stroke:none"/><path d="m 3805.58,874.363 -222.02,0 c -10.57,0 -19.83,-8.582 -19.83,-18.492 0,-115.637 72.04,-155.285 130.84,-155.285 42.29,0 83.27,31.719 101.76,61.457 1.32,1.98 3.97,3.297 5.95,1.316 l 13.21,-10.578 c 1.99,-1.316 1.99,-3.301 0.67,-5.281 -25.12,-45.598 -74.01,-80.617 -138.77,-80.617 -86.55,0 -175.77,53.527 -175.77,206.828 0,125.539 79.97,202.849 175.77,202.849 74.01,0 149.33,-45.6 149.33,-173.122 0,-13.868 -9.9,-29.075 -21.14,-29.075 z m -128.19,173.777 c -60.12,0 -101.1,-42.94 -110.34,-127.515 -1.32,-10.578 3.96,-16.523 13.87,-17.187 0,0 46.25,-0.657 66.08,-0.657 l 46.91,0 c 17.84,0 38.98,1.321 49.56,4.621 17.84,4.629 23.13,13.875 23.13,31.063 0,82.585 -41.64,109.675 -89.21,109.675" inkscape:connector-curvature="0" id="path50" style="fill:#333333;fill-opacity:1;fill-rule:nonzero;stroke:none"/><path d="m 4133.29,1036.91 -120.27,1.32 c -4.62,0 -9.25,-5.28 -9.25,-11.88 l -1.32,-154.623 1.32,-151.981 c 0,-16.516 9.25,-27.742 21.15,-29.726 l 27.09,-3.965 c 5.94,-0.664 11.24,-3.965 11.24,-7.278 0,-3.965 -4.63,-5.281 -10.58,-5.281 l -153.3,0 c -5.95,0 -11.23,1.316 -11.23,4.629 0,3.965 5.28,7.266 10.57,7.93 l 27.09,3.965 c 12.56,1.984 21.8,13.21 21.8,29.726 l 1.33,151.981 -1.33,154.623 c 0,6.6 -3.96,11.88 -8.58,11.88 l -120.27,0 c -3.3,0 -6.6,2.65 -6.6,5.95 l 0,19.17 c 0,3.96 2.64,6.6 6.6,6.6 l 115.64,0 c 7.27,0 13.21,5.3 17.84,15.19 l 36.35,74.02 c 1.97,3.3 4.62,5.95 7.93,5.95 2.63,0 5.94,-1.99 5.94,-7.93 l 0,-87.23 130.17,0 c 4.63,0 6.6,-1.32 6.6,-5.28 l 0,-22.47 c 0,-3.97 -2.63,-5.29 -5.93,-5.29" inkscape:connector-curvature="0" id="path52" style="fill:#333333;fill-opacity:1;fill-rule:nonzero;stroke:none"/><path d="m 2003.14,135.332 -79.95,0 c -4.63,0 -9.91,1.98 -13.88,3.965 -14.53,8.594 -37.67,24.445 -51.54,35.019 -36.34,-29.07 -81.27,-45.597 -135.45,-45.597 -79.3,0 -124.23,46.914 -124.23,112.336 0,55.507 36.34,91.843 70.7,118.933 -17.18,27.094 -25.11,52.864 -25.11,84.582 0,57.481 40.97,93.164 95.15,93.164 31.72,0 76.65,-3.964 76.65,-3.964 3.97,-0.657 6.61,-2.637 7.27,-7.93 l 6.61,-87.879 c 0,-3.305 -1.98,-6.606 -5.95,-6.606 -2.64,0 -5.95,1.321 -6.61,5.286 -9.91,49.558 -21.14,75.988 -71.36,75.988 -30.4,0 -54.84,-23.125 -54.84,-52.863 0,-74.004 83.92,-161.887 171.13,-226.641 14.54,23.125 23.79,64.09 23.79,87.215 0,8.594 -2.64,13.879 -5.28,17.844 -5.29,5.945 -11.9,6.609 -11.9,13.222 0,3.953 4.63,5.282 11.23,5.282 l 97.8,0 c 6.61,0 10.57,-1.329 10.57,-4.629 0,-4.618 -3.96,-5.946 -10.57,-7.266 l -9.91,-1.316 c -13.87,-2.645 -26.43,-13.879 -31.06,-32.383 -9.91,-38.321 -24.45,-72.684 -44.93,-99.778 38.33,-26.425 84.58,-54.179 112.33,-68.718 1.32,-0.657 1.98,-1.981 1.98,-3.301 0,-1.985 -0.66,-3.965 -2.64,-3.965 z m -313.2,195.586 c -20.49,-19.824 -35.02,-41.629 -35.02,-72.688 -0.66,-58.144 37,-100.429 91.19,-100.429 33.03,0 62.76,12.551 85.89,35.023 -48.89,33.688 -102.41,88.531 -142.06,138.094" inkscape:connector-curvature="0" id="path54" style="fill:#333333;fill-opacity:1;fill-rule:nonzero;stroke:none"/><path d="m 2260.83,128.719 c -49.56,0 -79.95,9.258 -116.95,11.898 -4.63,0 -9.25,5.945 -9.25,8.594 l -10.58,102.418 c 0,3.301 1.33,7.266 4.63,7.266 2.64,0 4.62,-1.981 5.95,-5.282 26.43,-75.996 65.41,-97.14 132.15,-97.14 45.6,0 84.58,20.488 84.58,65.422 0,114.968 -223.34,77.304 -223.34,211.445 0,66.726 47.58,105.058 113.65,105.058 59.47,0 91.19,-9.25 127.53,-11.894 4.62,0 8.59,-3.301 8.59,-8.594 l 0.66,-102.41 c 0,-4.629 -2.65,-7.277 -5.29,-7.277 -1.98,0 -4.62,1.984 -5.28,5.293 -15.2,71.359 -52.86,95.808 -124.89,95.808 -37.66,0 -66.74,-17.84 -66.74,-52.203 0,-106.379 222.68,-67.394 222.68,-216.066 0,-81.282 -63.43,-112.336 -138.1,-112.336" inkscape:connector-curvature="0" id="path56" style="fill:#333333;fill-opacity:1;fill-rule:nonzero;stroke:none"/><path d="m 2610.95,128.719 c -125.54,0 -165.85,93.828 -165.85,202.863 0,105.723 44.27,206.816 167.83,206.816 125.55,0 165.86,-93.828 165.86,-202.851 0,-105.723 -44.28,-206.828 -167.84,-206.828 z m -1.99,382.59 c -89.19,0 -103.73,-93.176 -103.73,-169.161 0,-73.339 9.25,-186.328 109.68,-186.328 89.21,0 103.74,93.164 103.74,169.149 0,73.351 -9.25,186.34 -109.69,186.34" inkscape:connector-curvature="0" id="path58" style="fill:#333333;fill-opacity:1;fill-rule:nonzero;stroke:none"/><path d="m 2996.17,128.719 c -87.22,0 -173.12,53.527 -173.12,206.164 0,126.203 75.98,203.515 166.5,203.515 37.02,0 76,-6.609 112.99,-9.25 3.97,0 7.93,-5.293 7.93,-8.593 l 0,-102.422 c 0,-5.945 -2.63,-9.246 -5.28,-9.246 -3.3,0 -5.28,2.644 -6.61,7.265 -14.53,66.082 -37.66,94.493 -107.7,94.493 -89.86,0 -105.72,-118.27 -105.72,-177.747 0,-128.183 66.07,-171.14 130.17,-171.14 43.61,0 81.28,32.383 99.77,62.121 1.33,1.98 3.97,2.633 5.95,1.316 l 13.21,-11.23 c 1.99,-1.328 1.99,-3.309 0.67,-5.285 -25.11,-45.594 -74.01,-79.961 -138.76,-79.961" inkscape:connector-curvature="0" id="path60" style="fill:#333333;fill-opacity:1;fill-rule:nonzero;stroke:none"/><path d="m 3302.76,135.332 -153.3,0 c -5.94,0 -10.57,1.316 -10.57,4.629 0,3.965 4.63,7.266 10.57,7.93 l 27.09,3.964 c 11.89,1.981 21.81,13.211 21.81,29.727 l 0.66,151.98 -0.66,152.637 c 0,16.516 -10.57,27.094 -21.81,29.074 l -22.46,3.965 c -5.29,0.653 -10.57,3.301 -10.57,7.266 0,3.965 4.62,5.285 10.57,5.285 l 93.16,0 c 5.29,0 9.26,-2.641 9.26,-7.934 l -2.65,-43.601 -0.65,-146.692 0.65,-151.98 c 0,-16.516 9.91,-27.746 21.81,-29.727 l 27.09,-3.964 c 5.95,-0.664 10.58,-3.965 10.58,-7.274 0,-3.969 -4.63,-5.285 -10.58,-5.285 z m -83.92,459.891 c -17.18,0 -30.4,12.55 -30.4,29.074 0,21.805 19.83,39.648 40.31,39.648 17.85,0 31.06,-11.894 31.06,-29.07 0,-21.156 -19.83,-39.652 -40.97,-39.652" inkscape:connector-curvature="0" id="path62" style="fill:#333333;fill-opacity:1;fill-rule:nonzero;stroke:none"/><path d="m 3638.42,336.199 -222.01,0 c -10.57,0 -19.82,-8.582 -19.82,-18.492 0,-115.637 72.03,-155.285 130.84,-155.285 42.28,0 83.25,31.719 101.75,61.457 1.31,1.98 3.97,3.297 5.94,1.316 l 13.22,-10.574 c 1.98,-1.32 1.98,-3.305 0.66,-5.285 -25.11,-45.594 -74,-80.617 -138.76,-80.617 -86.56,0 -175.76,53.527 -175.76,206.828 0,125.539 79.95,202.851 175.76,202.851 74,0 149.33,-45.597 149.33,-173.125 0,-13.867 -9.91,-29.074 -21.15,-29.074 z M 3510.24,509.98 c -60.13,0 -101.1,-42.949 -110.35,-127.519 -1.32,-10.578 3.96,-16.523 13.88,-17.188 0,0 46.25,-0.652 66.08,-0.652 l 46.91,0 c 17.83,0 38.99,1.317 49.55,4.617 17.85,4.629 23.13,13.875 23.13,31.063 0,82.59 -41.62,109.679 -89.2,109.679" inkscape:connector-curvature="0" id="path64" style="fill:#333333;fill-opacity:1;fill-rule:nonzero;stroke:none"/><path d="m 3966.13,498.75 -120.27,1.316 c -4.61,0 -9.24,-5.281 -9.24,-11.882 l -1.32,-154.622 1.32,-151.98 c 0,-16.516 9.24,-27.746 21.14,-29.727 l 27.09,-3.964 c 5.95,-0.664 11.24,-3.965 11.24,-7.274 0,-3.969 -4.63,-5.285 -10.58,-5.285 l -153.3,0 c -5.94,0 -11.23,1.316 -11.23,4.629 0,3.965 5.29,7.266 10.58,7.93 l 27.09,3.964 c 12.55,1.981 21.8,13.211 21.8,29.727 l 1.33,151.98 -1.33,154.622 c 0,6.601 -3.96,11.882 -8.59,11.882 l -120.25,0 c -3.31,0 -6.61,2.649 -6.61,5.95 l 0,19.168 c 0,3.964 2.64,6.605 6.61,6.605 l 115.62,0 c 7.28,0 13.22,5.293 17.85,15.191 l 36.34,74.016 c 1.98,3.301 4.62,5.945 7.93,5.945 2.65,0 5.95,-1.98 5.95,-7.929 l 0,-87.223 130.17,0 c 4.62,0 6.6,-1.32 6.6,-5.285 l 0,-22.473 c 0,-3.965 -2.63,-5.281 -5.94,-5.281" inkscape:connector-curvature="0" id="path66" style="fill:#333333;fill-opacity:1;fill-rule:nonzero;stroke:none"/><path d="m 4310.38,480.254 -0.66,-146.692 0.66,-223.339 c 0,-60.1253 -43.62,-96.473 -99.11,-109.683938 -16.52,-3.964842 -20.48,15.191438 -7.93,20.476538 l 15.2,5.9453 c 24.44,9.2579 36.34,31.7188 36.34,54.8438 l 0.65,98.4573 c 0,3.965 -5.28,4.629 -7.93,0.664 -27.09,-34.364 -65.41,-52.207 -112.32,-52.207 -87.23,0 -129.51,52.863 -129.51,121.582 l 0,83.261 -0.67,151.977 c 0,15.856 -10.56,27.754 -22.46,29.734 l -20.49,3.965 c -5.28,1.317 -10.56,3.965 -10.56,7.93 0,3.301 4.62,4.621 10.56,4.621 l 118.95,0 c 5.94,0 10.56,-1.32 10.56,-4.621 0,-3.965 -4.62,-6.613 -10.56,-7.93 -11.9,-2.648 -20.49,-13.222 -20.49,-29.734 l -0.66,-155.942 0,-70.703 c 0,-59.472 29.08,-93.824 93.17,-93.824 37,0 102.41,29.735 102.41,81.266 l 0,83.261 -0.65,151.977 c 0,16.512 -9.92,27.754 -21.81,29.734 l -27.09,3.965 c -5.94,0.653 -10.57,3.965 -10.57,7.266 0,3.965 4.63,5.285 10.57,5.285 l 97.79,0 c 5.29,0 9.91,-2.641 9.25,-7.934 l -2.64,-43.601" inkscape:connector-curvature="0" id="path68" style="fill:#333333;fill-opacity:1;fill-rule:nonzero;stroke:none"/><path d="m 1547.85,1124.44 197.301,0 0,128.477 -197.301,0 0,-128.477 z" inkscape:connector-curvature="0" id="path70" style="fill:#ffffff;fill-opacity:1;fill-rule:nonzero;stroke:none"/><path d="m 3103.23,578.445 197.285,0 0,91.7773 -197.285,0 0,-91.7773 z" inkscape:connector-curvature="0" id="path72" style="fill:#ffffff;fill-opacity:1;fill-rule:nonzero;stroke:none"/><path d="m 5529.4,776.23 -0.63,0 c 0.45,6.024 0.73,12.063 0.73,18.172 l 0.45,75.606 c 49.14,8.91 96.21,32.304 134.36,70.019 l 8.92,9.356 0.26,-0.262 226.98,224.459 -169.74,171.63 -0.54,-0.45 c -3.87,4.59 -7.92,9 -12.24,13.41 l -53.19,53.73 c 28.45,41.04 45.19,90.81 45.54,144.54 l -0.45,12.96 0.45,0 1.81,319.23 -241.38,1.26 0,-0.63 c -6.04,0.45 -12.07,0.72 -18.19,0.72 l -75.6,0.45 c -8.99,49.14 -32.31,96.21 -70.11,134.37 l -9.35,8.91 0.36,0.27 -224.55,226.98 -171.63,-169.74 0.45,-0.45 c -4.51,-3.97 -9.01,-8.01 -13.32,-12.33 l -53.74,-53.19 c -41.13,28.44 -90.89,45.18 -144.54,45.54 l -12.96,-0.36 0,0.45 -319.23,1.71 -1.34,-241.38 0.71,0 c -0.45,-6.03 -0.71,-12.06 -0.81,-18.09 l -0.36,-75.69 c -49.13,-8.91 -96.2,-32.31 -134.45,-70.02 l -8.82,-9.45 -0.28,0.36 -226.98,-224.46 169.74,-171.63 0.46,0.45 c 3.86,-4.59 8.01,-9 12.23,-13.41 l 53.2,-53.73 c -28.35,-41.04 -45.19,-90.81 -45.46,-144.54 l 0.36,-12.96 -0.45,0.08 -1.71,-319.311 241.39,-1.262 0,0.637 c 5.93,-0.461 11.96,-0.723 18.08,-0.809 l 75.7,-0.363 c 8.9,-49.141 32.21,-96.211 70.02,-134.375 l 9.35,-8.907 -0.26,-0.273 224.54,-226.984 171.54,169.746 -0.45,0.449 c 4.59,3.957 9.01,8.008 13.32,12.328 l 53.82,53.102 c 41.05,-28.348 90.81,-45.176 144.54,-45.45 l 12.87,0.364 0,-0.45 319.32,-1.71 1.26,241.378" inkscape:connector-curvature="0" id="path74" style="fill:#ffffff;fill-opacity:1;fill-rule:nonzero;stroke:none"/><path d="m 5534.26,771.551 -0.62,0 c 0.45,6.027 0.71,12.062 0.71,18.176 l 0.45,75.867 c 49.23,9.004 96.49,32.406 134.82,70.293 l 8.91,9.453 0.27,-0.36 227.7,225.27 -170.27,172.08 -0.45,-0.45 c -3.97,4.59 -8.11,9.08 -12.34,13.41 l -53.37,53.91 c 28.53,41.22 45.28,91.17 45.64,145.08 l -0.36,12.87 0.45,0 1.7,320.31 -242.09,1.26 0,-0.63 c -6.04,0.45 -12.15,0.72 -18.19,0.81 l -75.95,0.36 c -8.92,49.32 -32.32,96.48 -70.21,134.82 l -9.44,8.91 0.36,0.27 -225.28,227.7 -172.16,-170.28 0.44,-0.45 c -4.5,-3.96 -9,-8.02 -13.32,-12.33 l -53.91,-53.37 c -41.31,28.52 -91.16,45.36 -145.08,45.63 l -12.96,-0.36 0,0.45 -320.21,1.71 -1.36,-242.1 0.72,0 c -0.54,-6.03 -0.72,-12.06 -0.81,-18.18 l -0.36,-75.87 c -49.31,-9.01 -96.57,-32.4 -134.81,-70.29 l -8.92,-9.45 -0.26,0.36 -227.71,-225.18 170.28,-172.17 0.45,0.45 c 3.87,-4.59 8.01,-9.09 12.33,-13.41 l 53.38,-54 c -28.54,-41.13 -45.36,-91.08 -45.64,-144.99 l 0.36,-12.87 -0.45,0 -1.79,-320.315 242.18,-1.261 0,0.636 c 6.03,-0.449 12.07,-0.722 18.18,-0.812 l 75.87,-0.36 c 9,-49.316 32.4,-96.574 70.29,-134.812 l 9.37,-8.918 -0.28,-0.266 225.19,-227.703 172.17,170.281 -0.45,0.45 c 4.59,3.957 8.99,8.008 13.41,12.324 l 53.9,53.371 c 41.22,-28.527 91.08,-45.352 144.99,-45.625 l 12.96,0.359 0,-0.445 320.31,-1.711 1.26,242.098" inkscape:connector-curvature="0" id="path76" style="fill:#ffffff;fill-opacity:1;fill-rule:nonzero;stroke:none"/><path d="m 5697.52,1460.45 c -0.06,-0.18 -0.13,-0.36 -0.21,-0.54 0.08,0.18 0.15,0.36 0.21,0.54 m 1.12,2.83 c -0.1,-0.25 -0.2,-0.49 -0.28,-0.74 0.08,0.25 0.18,0.5 0.28,0.74 m 1.49,4.01 c -0.19,-0.54 -0.39,-1.08 -0.58,-1.61 0.19,0.53 0.39,1.07 0.58,1.61 m 0.99,2.75 c -0.22,-0.63 -0.45,-1.26 -0.67,-1.89 0.22,0.63 0.45,1.26 0.67,1.89 m 14.5,79.1 c -0.72,-27.57 -5.72,-54.05 -14.39,-78.8 8.68,24.75 13.69,51.23 14.39,78.8 m 0.05,2.47 c -0.01,-0.74 -0.03,-1.48 -0.05,-2.22 0.02,0.74 0.04,1.49 0.05,2.22" inkscape:connector-curvature="0" id="path78" style="fill:#e391e5;fill-opacity:1;fill-rule:nonzero;stroke:none"/><path d="m 5381.33,1889.3 c 0,-0.01 0,-0.02 0.01,-0.04 l 75.88,-0.36 c 6.04,-0.09 12.15,-0.36 18.19,-0.81 l 0,0 c -6.04,0.45 -12.15,0.72 -18.19,0.81 l -75.89,0.4" inkscape:connector-curvature="0" id="path80" style="fill:#e391e5;fill-opacity:1;fill-rule:nonzero;stroke:none"/><path d="m 5182.64,1534.55 -8.73,-8.63 0.35,-0.35 8.38,8.98 m 198.7,354.71 c 14.75,-80.92 -9.39,-167.48 -72.25,-229.68 l -123.48,-122.1 c 49.92,48.04 114.35,72.02 178.75,72.02 66.43,-0.01 132.83,-25.52 183.22,-76.46 l 122.49,-123.81 c 10.87,15.71 20.04,32.7 27.24,50.68 0.08,0.18 0.15,0.36 0.21,0.54 0.29,0.7 0.56,1.39 0.84,2.09 0.08,0.25 0.18,0.49 0.28,0.74 0.3,0.8 0.6,1.6 0.91,2.4 0.19,0.53 0.39,1.07 0.58,1.61 0.11,0.29 0.21,0.57 0.32,0.86 0.22,0.63 0.45,1.26 0.67,1.89 0.04,0.1 0.08,0.2 0.11,0.3 8.67,24.75 13.67,51.23 14.39,78.8 0,0.08 0,0.16 0,0.25 0.02,0.74 0.04,1.48 0.05,2.22 0.02,0.89 0.03,1.77 0.04,2.67 l -0.36,12.87 0.45,0 1.7,320.31 -242.09,1.26 0,-0.63 c -6.04,0.45 -12.15,0.72 -18.19,0.81 l -75.88,0.36" inkscape:connector-curvature="0" id="path82" style="fill:#e391e5;fill-opacity:1;fill-rule:nonzero;stroke:none"/><path d="m 5441.47,1402.27 c -30.96,0.18 -55.89,25.38 -55.7,56.25 0.17,30.96 25.37,55.89 56.34,55.71 30.95,-0.18 55.8,-25.38 55.71,-56.34 -0.19,-30.87 -25.38,-55.8 -56.35,-55.62" inkscape:connector-curvature="0" id="path84" style="fill:#ffffff;fill-opacity:1;fill-rule:nonzero;stroke:none"/><path d="m 5442.95,1672.68 c -30.91,0.17 -55.84,25.37 -55.69,56.3 0.18,30.92 25.39,55.86 56.31,55.69 30.93,-0.19 55.85,-25.37 55.68,-56.29 -0.17,-30.93 -25.38,-55.86 -56.3,-55.7" inkscape:connector-curvature="0" id="path86" style="fill:#ffffff;fill-opacity:1;fill-rule:nonzero;stroke:none"/><path d="m 5213.69,1780 c -37.98,-7.56 -71.28,-27.99 -95.14,-56.61 -23.85,-28.62 -38.34,-65.52 -38.6,-105.66 l -0.1,-45 c -0.26,-39.87 14.04,-76.68 37.63,-105.39 23.66,-28.8 56.61,-49.59 94.04,-57.87 l 5.59,25.38 c -31.51,7.02 -59.5,24.66 -79.48,49.05 -19.98,24.3 -31.95,55.17 -31.77,88.74 l 0.09,45 c 0.28,33.93 12.43,64.8 32.58,89.01 20.17,24.21 48.24,41.49 80.2,47.88 l -5.04,25.47" inkscape:connector-curvature="0" id="path88" style="fill:#ffffff;fill-opacity:1;fill-rule:nonzero;stroke:none"/><path d="m 5658.43,925.461 c -36.17,-31.789 -79.09,-51.723 -123.63,-59.867 l 0,-0.008 c 44.61,8.133 87.47,28.086 123.63,59.875 m 7.24,6.598 c -2.26,-2.129 -4.53,-4.207 -6.84,-6.25 2.31,2.043 4.58,4.121 6.84,6.25 m 3.95,3.828 c -1.07,-1.063 -2.16,-2.11 -3.25,-3.153 1.09,1.036 2.18,2.09 3.25,3.153 m 0.46,473.333 c 0,-0.01 0,-0.01 -0.01,-0.02 l 53.37,-53.91 c 4.23,-4.33 8.37,-8.82 12.34,-13.41 l 0.45,0.45 170.27,-172.08 -170.27,172.08 -0.45,-0.45 c -3.97,4.59 -8.11,9.08 -12.34,13.41 l -53.36,53.93" inkscape:connector-curvature="0" id="path90" style="fill:#90a4e6;fill-opacity:1;fill-rule:nonzero;stroke:none"/><path d="m 4946.21,1300.66 0,0 239.16,-1.28 c 0,0.01 0.01,0.02 0.01,0.03 l -239.17,1.25 m 723.86,108.57 c -46.53,-67.27 -124.19,-111.28 -212.07,-111.28 -0.5,0 -1,0.01 -1.5,0.01 l -244.92,1.32 c 0,-0.01 0,-0.02 -0.01,-0.04 l 54.94,-0.29 -0.09,-0.45 12.96,0.36 c 142.38,-0.72 257.13,-116.82 256.33,-259.11 l -0.95,-174.176 c 0.01,0 0.03,0.012 0.04,0.012 l 0,0.008 c 44.54,8.144 87.46,28.078 123.63,59.867 0.13,0.113 0.27,0.23 0.4,0.348 2.31,2.043 4.58,4.121 6.84,6.25 0.23,0.234 0.46,0.449 0.7,0.675 1.09,1.043 2.18,2.09 3.25,3.153 l 0,0 8.91,9.453 0.27,-0.36 227.7,225.27 -170.27,172.08 -0.45,-0.45 c -3.97,4.59 -8.11,9.08 -12.34,13.41 l -53.37,53.91 c 0.01,0.01 0.01,0.01 0.01,0.02 l -0.01,0.01" inkscape:connector-curvature="0" id="path92" style="fill:#90a4e6;fill-opacity:1;fill-rule:nonzero;stroke:none"/><path d="m 5364.36,1609.5 c -64.4,0 -128.83,-23.98 -178.75,-72.02 l -2.97,-2.93 -8.38,-8.98 -0.35,0.35 -39.01,-38.58 c 0.9,-1.16 1.8,-2.31 2.73,-3.44 19.98,-24.39 47.97,-42.03 79.48,-49.05 l -5.59,-25.38 c -37.43,8.28 -70.38,29.07 -94.04,57.87 -0.41,0.5 -0.82,1 -1.23,1.51 l -170.04,-168.19 239.17,-1.25 c 4.05,36.29 19.9,71.59 47.74,99.17 l 31.86,31.77 c 28.53,28.17 64.8,44.01 101.98,47.43 4.97,0.45 9.95,0.67 14.94,0.67 2.52,0 5.04,-0.07 7.57,-0.18 8.07,21.05 28.44,35.96 52.3,35.96 0.11,0 0.22,0 0.34,0 30.95,-0.18 55.8,-25.38 55.71,-56.34 -0.19,-30.76 -25.21,-55.62 -56.02,-55.62 -0.1,0 -0.21,0 -0.33,0 -28.87,0.17 -52.49,22.09 -55.4,50.08 -1.4,0.04 -2.79,0.07 -4.19,0.07 -4.2,0 -8.4,-0.19 -12.59,-0.56 -31.4,-2.88 -61.92,-16.2 -85.95,-40.06 l -31.86,-31.67 c -22.82,-22.56 -36.07,-51.1 -39.9,-80.85 l 244.92,-1.32 c 0.5,0 1,-0.01 1.5,-0.01 87.88,0 165.54,44.01 212.07,111.28 l -122.49,123.81 c -50.39,50.94 -116.79,76.45 -183.22,76.46" inkscape:connector-curvature="0" id="path94" style="fill:#805dcf;fill-opacity:1;fill-rule:nonzero;stroke:none"/><path d="m 5441.77,1514.23 c -23.86,0 -44.23,-14.91 -52.3,-35.96 29.69,-1.34 59.12,-10.59 84.76,-27.76 l -14.4,-21.6 c -22.27,14.87 -47.93,22.68 -73.76,23.44 2.91,-27.99 26.53,-49.91 55.4,-50.08 0.12,0 0.23,0 0.33,0 30.81,0 55.83,24.86 56.02,55.62 0.09,30.96 -24.76,56.16 -55.71,56.34 -0.12,0 -0.23,0 -0.34,0" inkscape:connector-curvature="0" id="path96" style="fill:#90a4e6;fill-opacity:1;fill-rule:nonzero;stroke:none"/><path d="m 5134.9,1487.34 -3.57,-3.53 c -0.61,-0.62 -1.24,-1.23 -1.86,-1.84 l -11.13,-11.01 0.04,-0.02 -2.13,-2.09 c 0.41,-0.51 0.82,-1.01 1.23,-1.51 23.66,-28.8 56.61,-49.59 94.04,-57.87 l 5.59,25.38 c -31.51,7.02 -59.5,24.66 -79.48,49.05 -0.93,1.13 -1.83,2.28 -2.73,3.44" inkscape:connector-curvature="0" id="path98" style="fill:#90a4e6;fill-opacity:1;fill-rule:nonzero;stroke:none"/><path d="m 5368.21,1022.29 c -21.69,22.05 -21.51,57.5 0.45,79.21 21.96,21.77 57.42,21.59 79.21,-0.46 21.77,-21.96 21.5,-57.42 -0.46,-79.11 -21.96,-21.79 -57.41,-21.6 -79.2,0.36" inkscape:connector-curvature="0" id="path100" style="fill:#ffffff;fill-opacity:1;fill-rule:nonzero;stroke:none"/><path d="m 5560.49,1212.47 c -21.74,21.99 -21.55,57.45 0.43,79.2 22.01,21.76 57.44,21.55 79.2,-0.43 21.75,-21.99 21.56,-57.43 -0.45,-79.18 -21.98,-21.76 -57.43,-21.56 -79.18,0.41" inkscape:connector-curvature="0" id="path102" style="fill:#ffffff;fill-opacity:1;fill-rule:nonzero;stroke:none"/><path d="m 5474.23,1450.51 c -32.12,21.51 -70.2,30.6 -107.27,27.27 -37.18,-3.42 -73.45,-19.26 -101.98,-47.43 l -31.86,-31.77 c -28.35,-28.08 -44.28,-64.17 -47.97,-101.16 -3.6,-36.99 4.95,-75.06 25.56,-107.37 l 21.96,13.95 c -17.37,27.27 -24.66,59.49 -21.6,90.9 3.07,31.32 16.47,61.56 40.41,85.23 l 31.86,31.67 c 24.03,23.86 54.55,37.18 85.95,40.06 31.32,2.79 63.45,-4.86 90.54,-22.95 l 14.4,21.6" inkscape:connector-curvature="0" id="path104" style="fill:#ffffff;fill-opacity:1;fill-rule:nonzero;stroke:none"/><path d="m 4946.21,1300.66 168.21,-170.03 0.02,0.01 -168.23,170.02" inkscape:connector-curvature="0" id="path106" style="fill:#8fcde8;fill-opacity:1;fill-rule:nonzero;stroke:none"/><path d="m 5196.23,531.289 c 0.09,0 0.2,0 0.29,0 -0.09,0 -0.19,0 -0.29,0 m -105.92,24.949 c 0.31,-0.144 0.6,-0.281 0.92,-0.429 -0.31,0.148 -0.62,0.293 -0.92,0.429 m -2.93,1.43 c 0.49,-0.246 0.98,-0.48 1.46,-0.715 -0.48,0.235 -0.97,0.469 -1.46,0.715 m -32.62,19.195 -0.01,-0.008 c 10.21,-7.062 20.96,-13.41 32.16,-18.957 -11.19,5.559 -21.95,11.907 -32.15,18.965" inkscape:connector-curvature="0" id="path108" style="fill:#8fcde8;fill-opacity:1;fill-rule:nonzero;stroke:none"/><path d="m 5132.85,1112.09 c -0.01,-0.02 -0.03,-0.03 -0.05,-0.04 l 38.58,-39 -0.27,-0.37 9.45,-8.9 c 100.08,-101.163 99.18,-264.327 -1.98,-364.417 l -123.82,-122.5 c 10.2,-7.058 20.96,-13.406 32.15,-18.965 0.16,-0.078 0.31,-0.152 0.47,-0.23 0.49,-0.246 0.98,-0.48 1.46,-0.715 0.49,-0.234 0.99,-0.48 1.47,-0.715 0.3,-0.136 0.61,-0.281 0.92,-0.429 31.94,-15.086 67.48,-23.805 105,-24.52 0.1,0 0.2,0 0.29,0 1.07,-0.019 2.14,-0.031 3.21,-0.039 l 12.96,0.359 0,-0.445 320.31,-1.711 1.26,242.098 -0.62,0 0,0 c 0.45,6.027 0.71,12.062 0.71,18.176 l 0.41,75.847 c -15.35,-2.801 -30.9,-4.195 -46.46,-4.195 -66.41,0 -132.8,25.516 -183.18,76.492 l -172.27,174.219" inkscape:connector-curvature="0" id="path110" style="fill:#8fcde8;fill-opacity:1;fill-rule:nonzero;stroke:none"/><path d="m 4946.21,1300.66 0,0 168.23,-170.02 c 28.3,22.77 64.22,36.46 103.08,36.46 0.25,0 0.5,0 0.76,0 l 45,-0.18 c 40.13,-0.18 77.04,-14.67 105.56,-38.52 5.78,-4.82 11.23,-10.03 16.31,-15.58 7.26,3.25 15.07,4.88 22.87,4.88 14.44,0 28.88,-5.56 39.85,-16.66 21.77,-21.96 21.5,-57.42 -0.46,-79.11 -10.91,-10.83 -25.16,-16.23 -39.4,-16.23 -14.42,0 -28.85,5.54 -39.8,16.59 -20.21,20.55 -21.43,52.74 -3.73,74.57 -3.86,4.1 -7.96,7.95 -12.29,11.56 -24.21,20.16 -55.16,32.31 -89.01,32.49 l -45,0.09 c -0.25,0 -0.5,0 -0.75,0 -31.7,0 -60.95,-10.75 -84.58,-28.91 l 172.27,-174.219 c 50.38,-50.976 116.77,-76.492 183.18,-76.492 15.56,0 31.11,1.394 46.46,4.195 l 0.95,174.176 c 0.8,142.29 -113.95,258.39 -256.33,259.11 l -12.96,-0.36 0.09,0.45 -54.94,0.29 c -0.19,-1.44 -0.36,-2.89 -0.5,-4.34 -3.06,-31.41 4.23,-63.63 21.6,-90.9 l -21.96,-13.95 c -20.61,32.31 -29.16,70.38 -25.56,107.37 0.07,0.65 0.15,1.31 0.22,1.96 l -239.16,1.28" inkscape:connector-curvature="0" id="path112" style="fill:#5184d1;fill-opacity:1;fill-rule:nonzero;stroke:none"/><path d="m 5408.02,1117.7 c -7.8,0 -15.61,-1.63 -22.87,-4.88 20.07,-21.92 34.36,-49.25 40.39,-79.55 l -25.56,-5.14 c -5.17,26.32 -17.76,49.96 -35.5,68.73 -17.7,-21.83 -16.48,-54.02 3.73,-74.57 10.95,-11.05 25.38,-16.59 39.8,-16.59 14.24,0 28.49,5.4 39.4,16.23 21.96,21.69 22.23,57.15 0.46,79.11 -10.97,11.1 -25.41,16.66 -39.85,16.66" inkscape:connector-curvature="0" id="path114" style="fill:#8fcde8;fill-opacity:1;fill-rule:nonzero;stroke:none"/><path d="m 5185.37,1299.38 c -0.07,-0.65 -0.15,-1.31 -0.22,-1.96 -3.6,-36.99 4.95,-75.06 25.56,-107.37 l 21.96,13.95 c -17.37,27.27 -24.66,59.49 -21.6,90.9 0.14,1.45 0.31,2.9 0.5,4.34 l -26.2,0.14" inkscape:connector-curvature="0" id="path116" style="fill:#8fcde8;fill-opacity:1;fill-rule:nonzero;stroke:none"/><path d="m 5047.82,805.477 c 0.17,30.871 25.37,55.8 56.25,55.625 30.95,-0.184 55.89,-25.379 55.7,-56.25 -0.18,-30.965 -25.38,-55.895 -56.34,-55.711 -30.87,0.175 -55.8,25.379 -55.61,56.336" inkscape:connector-curvature="0" id="path118" style="fill:#ffffff;fill-opacity:1;fill-rule:nonzero;stroke:none"/><path d="m 5318.2,803.957 c 0.18,30.934 25.39,55.879 56.31,55.699 30.92,-0.176 55.84,-25.367 55.68,-56.308 -0.15,-30.918 -25.39,-55.86 -56.31,-55.68 -30.92,0.191 -55.85,25.371 -55.68,56.289" inkscape:connector-curvature="0" id="path120" style="fill:#ffffff;fill-opacity:1;fill-rule:nonzero;stroke:none"/><path d="m 5425.54,1033.27 c -7.56,37.98 -28.08,71.28 -56.7,95.13 -28.52,23.85 -65.43,38.34 -105.56,38.52 l -45,0.18 c -39.88,0.18 -76.68,-14.05 -105.39,-37.71 -28.8,-23.58 -49.59,-56.52 -57.96,-93.96 l 25.46,-5.68 c 6.93,31.6 24.66,59.59 48.96,79.57 24.4,19.98 55.26,31.86 88.83,31.68 l 45,-0.09 c 33.85,-0.18 64.8,-12.33 89.01,-32.49 24.21,-20.16 41.5,-48.24 47.79,-80.29 l 25.56,5.14" inkscape:connector-curvature="0" id="path122" style="fill:#ffffff;fill-opacity:1;fill-rule:nonzero;stroke:none"/><path d="m 5054.73,576.863 -53.89,-53.359 53.91,53.351 c -0.01,0 -0.02,0.008 -0.02,0.008 m -476.39,3.645 c 1.02,-1.067 2.05,-2.121 3.09,-3.172 -1.04,1.043 -2.07,2.105 -3.09,3.172 m -3.81,4.062 c 0.98,-1.074 1.98,-2.14 2.99,-3.191 -1.01,1.051 -2.01,2.117 -2.99,3.191 m -2.98,3.309 c 0.93,-1.043 1.86,-2.086 2.81,-3.125 -0.95,1.039 -1.88,2.082 -2.81,3.125 m -6.65,7.812 c 1.93,-2.359 3.9,-4.695 5.94,-7 -2.03,2.305 -4.01,4.641 -5.94,7 m -46.27,85.805 c 9.52,-30.473 24.84,-59.516 45.96,-85.441 -20.34,24.98 -35.28,52.918 -44.86,82.215 -0.37,1.066 -0.74,2.148 -1.1,3.226" inkscape:connector-curvature="0" id="path124" style="fill:#8ee9d7;fill-opacity:1;fill-rule:nonzero;stroke:none"/><path d="m 4511.09,712.098 c 1.88,-10.309 4.39,-20.536 7.54,-30.602 0.36,-1.078 0.73,-2.16 1.1,-3.226 -3.62,11.105 -6.49,22.414 -8.57,33.828 l -0.07,0" inkscape:connector-curvature="0" id="path126" style="fill:#8ee9d7;fill-opacity:1;fill-rule:nonzero;stroke:none"/><path d="m 4944.35,963.562 c -2.89,-140.027 -117.35,-252.41 -257.73,-252.41 -0.44,0 -0.88,0.012 -1.32,0.012 l -174.14,0.934 c 2.08,-11.414 4.95,-22.723 8.57,-33.828 9.58,-29.297 24.52,-57.235 44.86,-82.215 0.11,-0.117 0.21,-0.235 0.31,-0.364 1.93,-2.359 3.91,-4.695 5.94,-7 0.23,-0.273 0.47,-0.539 0.71,-0.812 0.93,-1.043 1.86,-2.086 2.81,-3.125 0.06,-0.059 0.12,-0.125 0.17,-0.184 0.98,-1.074 1.98,-2.14 2.99,-3.191 0.27,-0.293 0.54,-0.578 0.82,-0.871 1.02,-1.067 2.05,-2.129 3.09,-3.172 l 0,0 9.37,-8.918 -0.28,-0.266 225.19,-227.703 172.17,170.281 -0.45,0.45 0,0 c 4.59,3.957 8.99,8.008 13.41,12.324 l 0,0 53.89,53.359 c -67.64,46.77 -111.77,125.02 -111.32,213.496 l 0.94,173.203 m 0.09,16.876 -0.39,0 0.33,-11.942 0.06,11.942" inkscape:connector-curvature="0" id="path128" style="fill:#8ee9d7;fill-opacity:1;fill-rule:nonzero;stroke:none"/><path d="m 5054.74,576.875 -0.01,-0.012 c 0,0 0.01,-0.008 0.02,-0.008 l 0.01,0.008 c -0.01,0.012 -0.01,0.012 -0.02,0.012" inkscape:connector-curvature="0" id="path130" style="fill:#50bac4;fill-opacity:1;fill-rule:nonzero;stroke:none"/><path d="m 4946.21,1300.66 0,0 -1.28,-239.16 c 36.3,-3.97 71.61,-19.82 99.19,-47.67 l 31.68,-31.857 c 28.27,-28.535 44.11,-64.891 47.43,-101.973 0.69,-7.512 0.87,-15.051 0.54,-22.578 21.17,-8.098 36.14,-28.625 36,-52.57 -0.18,-30.848 -25.2,-55.711 -56,-55.711 -0.11,0 -0.23,0 -0.34,0 -30.87,0.175 -55.8,25.379 -55.61,56.336 0.16,28.773 22.05,52.375 50.02,55.316 0.15,5.625 -0.01,11.258 -0.53,16.863 -2.88,31.317 -16.1,61.836 -39.96,85.957 l -31.68,31.856 c -22.55,22.811 -51.08,35.981 -80.88,39.891 l -0.29,-54.922 -0.06,0 -0.06,-11.942 0.02,-1.016 c 0,-1.308 -0.02,-2.605 -0.05,-3.918 l -0.94,-173.203 c -0.45,-88.476 43.68,-166.726 111.32,-213.496 l 0.01,0.012 c 0.01,0 0.01,0 0.02,-0.012 l 123.82,122.5 c 101.16,100.09 102.06,263.254 1.98,364.417 l -9.45,8.9 0.27,0.37 -38.58,39 c -1.16,-0.9 -2.32,-1.8 -3.45,-2.73 -24.3,-19.98 -42.03,-47.97 -48.96,-79.57 l -25.46,5.68 c 8.37,37.44 29.16,70.38 57.96,93.96 0.5,0.42 1.01,0.82 1.53,1.24 l -168.21,170.03" inkscape:connector-curvature="0" id="path132" style="fill:#50bbc4;fill-opacity:1;fill-rule:nonzero;stroke:none"/><path d="m 4946.21,1300.66 0,0" inkscape:connector-curvature="0" id="path134" style="fill:#28449f;fill-opacity:1;fill-rule:nonzero;stroke:none"/><path d="m 5097.84,860.793 c -27.97,-2.941 -49.86,-26.543 -50.02,-55.316 -0.19,-30.957 24.74,-56.161 55.61,-56.336 0.11,0 0.23,0 0.34,0 30.8,0 55.82,24.863 56,55.711 0.14,23.945 -14.83,44.472 -36,52.57 -1.31,-29.676 -10.56,-59.09 -27.72,-84.793 l -21.59,14.492 c 14.77,22.234 22.63,47.867 23.38,73.672" inkscape:connector-curvature="0" id="path136" style="fill:#8ee9d7;fill-opacity:1;fill-rule:nonzero;stroke:none"/><path d="m 5114.42,1130.63 c -0.52,-0.42 -1.03,-0.82 -1.53,-1.24 -28.8,-23.58 -49.59,-56.52 -57.96,-93.96 l 25.46,-5.68 c 6.93,31.6 24.66,59.59 48.96,79.57 1.13,0.93 2.29,1.83 3.45,2.73 l -18.38,18.58" inkscape:connector-curvature="0" id="path138" style="fill:#8ee9d7;fill-opacity:1;fill-rule:nonzero;stroke:none"/><path d="m 4667.84,878.738 c 21.95,21.692 57.41,21.508 79.2,-0.445 21.69,-22.055 21.6,-57.512 -0.45,-79.203 -21.97,-21.778 -57.43,-21.602 -79.2,0.453 -21.7,21.953 -21.51,57.418 0.45,79.195" inkscape:connector-curvature="0" id="path140" style="fill:#ffffff;fill-opacity:1;fill-rule:nonzero;stroke:none"/><path d="m 4857.99,686.418 c 22.01,21.754 57.46,21.559 79.21,-0.434 21.76,-21.988 21.55,-57.422 -0.43,-79.195 -21.99,-21.723 -57.44,-21.543 -79.2,0.445 -21.73,21.993 -21.54,57.442 0.42,79.184" inkscape:connector-curvature="0" id="path142" style="fill:#ffffff;fill-opacity:1;fill-rule:nonzero;stroke:none"/><path d="m 5096.05,772.629 c 21.51,32.223 30.61,70.289 27.18,107.371 -3.32,37.082 -19.16,73.438 -47.43,101.973 l -31.68,31.857 c -28.08,28.35 -64.16,44.28 -101.16,47.88 -36.99,3.69 -75.05,-4.87 -107.46,-25.47 l 14.05,-21.96 c 27.26,17.37 59.48,24.65 90.81,21.6 31.4,-3.16 61.65,-16.48 85.31,-40.411 l 31.68,-31.856 c 23.86,-24.121 37.08,-54.64 39.96,-85.957 2.88,-31.32 -4.85,-63.445 -22.85,-90.535 l 21.59,-14.492" inkscape:connector-curvature="0" id="path144" style="fill:#ffffff;fill-opacity:1;fill-rule:nonzero;stroke:none"/><path d="m 4435.27,712.508 75.19,-0.41 c 0,0.023 -0.01,0.039 -0.01,0.05 l -75.18,0.36" inkscape:connector-curvature="0" id="path146" style="fill:#bfea8e;fill-opacity:1;fill-rule:nonzero;stroke:none"/><path d="m 4510.45,712.148 c 0,-0.011 0.01,-0.027 0.01,-0.05 l 0.63,0 c 0,0.023 -0.01,0.039 -0.01,0.05 l -0.63,0 m -333.61,338.982 c 0,-0.35 -0.01,-0.7 -0.02,-1.06 0.01,0.35 0.02,0.71 0.02,1.06 m 0.08,3.04 c -0.01,-0.35 -0.02,-0.69 -0.02,-1.04 0,0.35 0.01,0.7 0.02,1.04 m 0.12,3.01 c -0.01,-0.23 -0.02,-0.47 -0.03,-0.7 0.01,0.24 0.02,0.46 0.03,0.7 m 0.19,3.76 c -0.02,-0.29 -0.04,-0.58 -0.05,-0.86 0.01,0.29 0.03,0.57 0.05,0.86 m 0.21,3.19 c -0.03,-0.37 -0.06,-0.75 -0.08,-1.12 0.02,0.37 0.05,0.75 0.08,1.12 m 0.22,3.01 c -0.03,-0.37 -0.06,-0.75 -0.09,-1.12 0.03,0.37 0.06,0.75 0.09,1.12 m 0.35,3.95 c -0.04,-0.44 -0.08,-0.87 -0.12,-1.3 0.04,0.43 0.08,0.87 0.12,1.3 m 0.31,2.93 c -0.05,-0.45 -0.09,-0.89 -0.14,-1.34 0.05,0.45 0.09,0.91 0.14,1.34 m 0.9,7.32 c -0.27,-1.94 -0.51,-3.88 -0.74,-5.83 0.23,1.95 0.47,3.89 0.74,5.83 m 0.39,2.74 c -0.09,-0.65 -0.19,-1.31 -0.28,-1.96 0.09,0.65 0.19,1.31 0.28,1.96 m 42.75,108.1 c -21.75,-31.45 -36.68,-67.99 -42.66,-107.49 5.99,39.51 20.95,76.04 42.73,107.43 l -0.07,0.06" inkscape:connector-curvature="0" id="path148" style="fill:#bfea8e;fill-opacity:1;fill-rule:nonzero;stroke:none"/><path d="m 4222.37,1192.2 c 0,0 0,-0.01 -0.01,-0.02 l 0.07,-0.06 c -21.78,-31.39 -36.74,-67.92 -42.73,-107.43 -0.03,-0.21 -0.06,-0.4 -0.09,-0.61 -0.09,-0.65 -0.19,-1.31 -0.28,-1.96 -0.04,-0.26 -0.08,-0.53 -0.11,-0.78 -0.27,-1.94 -0.51,-3.88 -0.74,-5.83 -0.05,-0.49 -0.1,-1 -0.16,-1.49 -0.05,-0.43 -0.09,-0.89 -0.14,-1.34 -0.06,-0.52 -0.11,-1.06 -0.17,-1.59 -0.04,-0.43 -0.08,-0.87 -0.12,-1.3 -0.08,-0.88 -0.16,-1.76 -0.23,-2.65 -0.03,-0.37 -0.06,-0.75 -0.09,-1.12 -0.05,-0.63 -0.09,-1.27 -0.13,-1.89 -0.03,-0.37 -0.06,-0.75 -0.08,-1.12 -0.05,-0.7 -0.09,-1.37 -0.13,-2.07 -0.02,-0.29 -0.04,-0.57 -0.05,-0.86 -0.06,-0.97 -0.11,-1.94 -0.14,-2.9 -0.01,-0.24 -0.02,-0.46 -0.03,-0.7 -0.03,-0.77 -0.06,-1.54 -0.09,-2.31 -0.01,-0.34 -0.02,-0.69 -0.02,-1.04 -0.02,-0.66 -0.04,-1.33 -0.06,-2 0,-0.35 -0.01,-0.71 -0.02,-1.06 -0.01,-0.98 -0.02,-1.96 -0.03,-2.94 l 0,0 0.36,-12.87 -0.45,0 -1.79,-320.315 242.18,-1.261 0,0.636 c 6.03,-0.449 12.07,-0.722 18.18,-0.812 l 0,0 75.18,-0.36 0.63,0 c -14.74,80.891 9.43,167.45 72.33,229.676 l 174.13,172.196 c 0,0.01 -0.02,0.02 -0.02,0.04 l -39.02,-38.58 -0.27,0.36 -8.91,-9.45 c -50.23,-49.7 -115.76,-74.515 -181.28,-74.515 -66.42,0 -132.84,25.525 -183.22,76.495 l -122.45,123.83 m 723.84,108.46 -170.03,-168.14 c 0.02,-0.02 0.03,-0.04 0.05,-0.06 l 169.98,168.2" inkscape:connector-curvature="0" id="path150" style="fill:#bfea8e;fill-opacity:1;fill-rule:nonzero;stroke:none"/><path d="m 4511.08,712.148 c 0,-0.011 0.01,-0.027 0.01,-0.05 l 0.07,0 c -0.01,0.023 -0.01,0.031 -0.02,0.05 l -0.06,0" inkscape:connector-curvature="0" id="path152" style="fill:#6ad677;fill-opacity:1;fill-rule:nonzero;stroke:none"/><path d="m 4946.21,1300.66 -169.98,-168.2 c 22.8,-28.46 36.59,-64.65 36.32,-103.78 l -0.09,-45 c -0.18,-40.145 -14.66,-77.039 -38.52,-105.664 -4.82,-5.782 -10.04,-11.227 -15.6,-16.305 9.22,-20.707 5.34,-45.805 -11.75,-62.621 -10.91,-10.809 -25.14,-16.211 -39.37,-16.211 -14.43,0 -28.86,5.559 -39.83,16.664 -21.7,21.953 -21.51,57.418 0.45,79.195 10.89,10.766 25.12,16.145 39.35,16.145 12.48,0 24.96,-4.141 35.21,-12.414 4.09,3.859 7.96,7.961 11.56,12.285 20.07,24.125 32.31,55.09 32.49,89.016 l 0.1,44.91 c 0.16,32.07 -10.69,61.6 -29.01,85.34 L 4583.41,941.824 c -62.9,-62.226 -87.07,-148.785 -72.33,-229.676 l 0.06,0 c 0.01,-0.019 0.01,-0.027 0.02,-0.05 l 174.14,-0.934 c 0.44,0 0.88,-0.012 1.32,-0.012 140.38,0 254.84,112.383 257.73,252.41 l 0.03,4.934 -0.33,11.942 0.39,0 0.29,54.922 c -1.45,0.19 -2.91,0.37 -4.37,0.52 -4.65,0.45 -9.3,0.68 -13.97,0.68 -26.8,0 -53.61,-7.49 -76.84,-22.28 l -14.05,21.96 c 27.51,17.5 59.11,26.31 90.67,26.31 5.6,0 11.21,-0.28 16.79,-0.84 0.64,-0.06 1.27,-0.14 1.91,-0.21 l 1.34,239.16" inkscape:connector-curvature="0" id="path154" style="fill:#6ad677;fill-opacity:1;fill-rule:nonzero;stroke:none"/><path d="m 4944.38,968.496 -0.03,-4.934 c 0.03,1.313 0.05,2.61 0.05,3.918 l -0.02,1.016 m 0.35,66.864 -0.29,-54.922 0.06,0 0.29,54.922 c -0.02,0 -0.04,0 -0.06,0 m 1.48,265.3 -1.34,-239.16 c 0.02,0 0.04,0 0.06,0 l 1.28,239.16" inkscape:connector-curvature="0" id="path156" style="fill:#3cac6d;fill-opacity:1;fill-rule:nonzero;stroke:none"/><path d="m 4707.19,894.883 c -14.23,0 -28.46,-5.379 -39.35,-16.145 -21.96,-21.777 -22.15,-57.242 -0.45,-79.195 10.97,-11.105 25.4,-16.664 39.83,-16.664 14.23,0 28.46,5.402 39.37,16.211 17.09,16.816 20.97,41.914 11.75,62.621 -21.91,-20.043 -49.22,-34.27 -79.53,-40.305 l -5.12,25.469 c 26.23,5.254 49.92,17.852 68.71,35.594 -10.25,8.273 -22.73,12.414 -35.21,12.414" inkscape:connector-curvature="0" id="path158" style="fill:#bfea8e;fill-opacity:1;fill-rule:nonzero;stroke:none"/><path d="m 4926.17,1062.55 c -31.56,0 -63.16,-8.81 -90.67,-26.31 l 14.05,-21.96 c 23.23,14.79 50.04,22.28 76.84,22.28 4.67,0 9.32,-0.23 13.97,-0.68 1.46,-0.15 2.92,-0.33 4.37,-0.52 0.02,0 0.04,0 0.06,0 l 0.14,26.14 c -0.02,0 -0.04,0 -0.06,0 -0.64,0.07 -1.27,0.15 -1.91,0.21 -5.58,0.56 -11.19,0.84 -16.79,0.84" inkscape:connector-curvature="0" id="path160" style="fill:#bfea8e;fill-opacity:1;fill-rule:nonzero;stroke:none"/><path d="m 4450.93,1199.14 c 30.96,-0.18 55.89,-25.38 55.71,-56.25 -0.18,-30.96 -25.37,-55.89 -56.34,-55.71 -30.87,0.18 -55.79,25.29 -55.62,56.25 0.18,30.96 25.38,55.89 56.25,55.71" inkscape:connector-curvature="0" id="path162" style="fill:#ffffff;fill-opacity:1;fill-rule:nonzero;stroke:none"/><path d="m 4449.49,928.719 c 30.92,-0.176 55.86,-25.371 55.7,-56.305 -0.19,-30.918 -25.39,-55.844 -56.3,-55.687 -30.93,0.175 -55.88,25.371 -55.69,56.312 0.18,30.918 25.35,55.84 56.29,55.68" inkscape:connector-curvature="0" id="path164" style="fill:#ffffff;fill-opacity:1;fill-rule:nonzero;stroke:none"/><path d="m 4678.81,821.406 c 37.98,7.559 71.28,27.996 95.13,56.61 23.86,28.625 38.34,65.519 38.52,105.664 l 0.09,45 c 0.27,39.86 -14.04,76.68 -37.61,105.39 -23.59,28.71 -56.53,49.59 -93.97,57.87 l -5.67,-25.38 c 31.59,-7.02 59.59,-24.66 79.47,-49.05 19.98,-24.3 31.95,-55.17 31.78,-88.83 l -0.1,-44.91 c -0.18,-33.926 -12.42,-64.891 -32.49,-89.016 -20.16,-24.207 -48.33,-41.484 -80.27,-47.879 l 5.12,-25.469" inkscape:connector-curvature="0" id="path166" style="fill:#ffffff;fill-opacity:1;fill-rule:nonzero;stroke:none"/><path d="m 4225.9,1668.46 c -1.01,-0.97 -2.03,-1.95 -3.02,-2.94 l -8.92,-9.45 -0.26,0.36 -226.4,-223.89 226.4,223.89 0.26,-0.36 8.92,9.45 c 0.99,0.99 2.01,1.96 3.02,2.94 m 3.3,3.11 c -0.7,-0.65 -1.41,-1.31 -2.11,-1.97 0.71,0.66 1.41,1.32 2.11,1.97 m 3.68,3.34 c -0.48,-0.43 -0.96,-0.86 -1.44,-1.3 0.48,0.43 0.96,0.87 1.44,1.3 m 2.81,2.47 c -0.32,-0.28 -0.64,-0.56 -0.96,-0.83 0.32,0.27 0.65,0.55 0.96,0.83 m 4.47,3.78 c -0.25,-0.21 -0.53,-0.44 -0.79,-0.66 0.26,0.22 0.54,0.45 0.79,0.66 m 2.42,1.98 c -0.08,-0.07 -0.13,-0.11 -0.22,-0.18 0.08,0.06 0.16,0.12 0.22,0.18 m 5.18,4.06 c -0.24,-0.18 -0.45,-0.34 -0.69,-0.52 0.23,0.17 0.47,0.35 0.69,0.52 m 7.93,5.83 c -0.31,-0.22 -0.64,-0.45 -0.95,-0.67 0.31,0.22 0.64,0.45 0.95,0.67 m 8.3,5.62 c -0.53,-0.34 -1.03,-0.67 -1.54,-1.01 0.5,0.34 1.02,0.68 1.54,1.01 m 4.74,3.01 c -0.97,-0.61 -1.97,-1.23 -2.93,-1.85 0.97,0.63 1.96,1.24 2.93,1.85 m 3.87,2.34 c -0.76,-0.46 -1.54,-0.93 -2.3,-1.38 0.76,0.46 1.53,0.92 2.3,1.38 m 4.6,2.68 c -1.13,-0.65 -2.26,-1.3 -3.39,-1.96 1.13,0.66 2.26,1.31 3.39,1.96 m 4.46,2.46 c -1.14,-0.62 -2.25,-1.23 -3.37,-1.86 1.12,0.63 2.24,1.24 3.37,1.86 m 4.29,2.27 c -1.34,-0.69 -2.67,-1.4 -4,-2.11 1.33,0.71 2.66,1.41 4,2.11 m 71.69,24.39 c -24.57,-4.47 -48.6,-12.54 -71.29,-24.19 22.68,11.64 46.73,19.7 71.29,24.19 l 0,0" inkscape:connector-curvature="0" id="path168" style="fill:#e9eb8c;fill-opacity:1;fill-rule:nonzero;stroke:none"/><path d="m 4707.04,1302 c 0,0 0,0 0,-0.01 l 239.17,-1.33 -239.17,1.34 m -349.4,433.8 c -24.56,-4.49 -48.61,-12.55 -71.29,-24.19 -0.14,-0.07 -0.26,-0.14 -0.4,-0.2 -1.34,-0.7 -2.67,-1.4 -4,-2.11 -0.1,-0.06 -0.2,-0.11 -0.29,-0.16 -1.13,-0.62 -2.25,-1.23 -3.37,-1.86 -0.36,-0.2 -0.73,-0.4 -1.09,-0.6 -1.13,-0.65 -2.26,-1.3 -3.39,-1.96 -0.41,-0.24 -0.8,-0.48 -1.21,-0.72 -0.77,-0.46 -1.54,-0.92 -2.3,-1.38 -0.53,-0.33 -1.04,-0.63 -1.57,-0.96 -0.97,-0.61 -1.96,-1.22 -2.93,-1.85 -0.61,-0.38 -1.21,-0.77 -1.81,-1.16 -0.52,-0.33 -1.04,-0.67 -1.54,-1.01 -2.28,-1.5 -4.54,-3.03 -6.76,-4.61 -0.31,-0.22 -0.64,-0.45 -0.95,-0.67 -2.35,-1.68 -4.68,-3.4 -6.98,-5.16 -0.22,-0.17 -0.46,-0.35 -0.69,-0.52 -1.5,-1.16 -3,-2.34 -4.49,-3.54 -0.06,-0.06 -0.14,-0.12 -0.22,-0.18 -0.74,-0.59 -1.47,-1.19 -2.2,-1.8 -0.25,-0.21 -0.53,-0.44 -0.79,-0.66 -1.24,-1.03 -2.46,-2.07 -3.68,-3.12 -0.31,-0.28 -0.64,-0.56 -0.96,-0.83 -0.61,-0.54 -1.24,-1.1 -1.85,-1.64 -0.48,-0.43 -0.96,-0.87 -1.44,-1.3 -0.75,-0.68 -1.49,-1.36 -2.24,-2.04 -0.7,-0.65 -1.4,-1.31 -2.11,-1.97 -0.39,-0.38 -0.8,-0.76 -1.19,-1.14 -1.01,-0.98 -2.03,-1.95 -3.02,-2.94 l -8.92,-9.45 -0.26,0.36 -226.4,-223.89 -1.31,-1.29 170.28,-172.17 0.45,0.45 c 3.87,-4.59 8.01,-9.09 12.33,-13.41 l 53.32,-53.92 c 46.51,67.25 124.18,111.25 212.03,111.25 0.5,0 1.01,0 1.5,0 l 244.92,-1.32 c 0,0.01 0,0.01 0.02,0.02 l -54.86,0.31 0,0.45 -12.96,-0.36 c -142.29,0.72 -257.13,116.82 -256.32,259.11 l 0.94,174.14" inkscape:connector-curvature="0" id="path170" style="fill:#e9eb8c;fill-opacity:1;fill-rule:nonzero;stroke:none"/><path d="m 4434.4,1303.45 c -87.85,0 -165.52,-44 -212.03,-111.25 l 122.45,-123.83 c 50.38,-50.97 116.8,-76.495 183.22,-76.495 65.52,0 131.05,24.815 181.28,74.515 l 8.91,9.45 0.27,-0.36 39.02,38.58 c -0.9,1.16 -1.81,2.32 -2.75,3.45 -19.88,24.39 -47.88,42.03 -79.47,49.05 l 5.67,25.38 c 37.44,-8.28 70.38,-29.16 93.97,-57.87 0.42,-0.51 0.83,-1.03 1.24,-1.55 l 170.03,168.14 -239.17,1.33 c -3.97,-36.29 -19.83,-71.58 -47.67,-99.16 l -31.85,-31.77 c -28.63,-28.26 -64.9,-44.01 -101.98,-47.43 -4.99,-0.45 -9.98,-0.67 -14.98,-0.67 -2.55,0 -5.08,0.06 -7.61,0.18 -8.08,-21.05 -28.46,-35.96 -52.31,-35.96 -0.12,0 -0.23,0 -0.34,0 -30.87,0.18 -55.79,25.29 -55.62,56.25 0.18,30.85 25.21,55.71 55.92,55.71 0.11,0 0.22,0 0.33,0 28.87,-0.17 52.49,-22.09 55.4,-50.08 1.43,-0.04 2.85,-0.07 4.26,-0.07 4.21,0 8.42,0.19 12.62,0.56 31.32,2.88 61.83,16.2 85.95,40.05 l 31.85,31.68 c 22.74,22.56 35.98,51.1 39.81,80.85 l -244.92,1.32 c -0.49,0 -1,0 -1.5,0" inkscape:connector-curvature="0" id="path172" style="fill:#afd84e;fill-opacity:1;fill-rule:nonzero;stroke:none"/><path d="m 4450.6,1199.14 c -30.71,0 -55.74,-24.86 -55.92,-55.71 -0.17,-30.96 24.75,-56.07 55.62,-56.25 0.11,0 0.22,0 0.34,0 23.85,0 44.23,14.91 52.31,35.96 -29.7,1.35 -59.08,10.58 -84.78,27.67 l 14.49,21.69 c 22.26,-14.86 47.84,-22.67 73.67,-23.44 -2.91,27.99 -26.53,49.91 -55.4,50.08 -0.11,0 -0.22,0 -0.33,0" inkscape:connector-curvature="0" id="path174" style="fill:#e9eb8c;fill-opacity:1;fill-rule:nonzero;stroke:none"/><path d="m 4680.97,1191.94 -5.67,-25.38 c 31.59,-7.02 59.59,-24.66 79.47,-49.05 0.94,-1.13 1.85,-2.29 2.75,-3.45 l 18.66,18.46 c -0.41,0.52 -0.82,1.04 -1.24,1.55 -23.59,28.71 -56.53,49.59 -93.97,57.87" inkscape:connector-curvature="0" id="path176" style="fill:#e9eb8c;fill-opacity:1;fill-rule:nonzero;stroke:none"/><path d="m 4524.2,1579.12 c 21.77,-22.05 21.51,-57.42 -0.45,-79.2 -21.97,-21.78 -57.43,-21.6 -79.2,0.36 -21.69,22.05 -21.52,57.51 0.45,79.2 22.05,21.78 57.41,21.6 79.2,-0.36" inkscape:connector-curvature="0" id="path178" style="fill:#ffffff;fill-opacity:1;fill-rule:nonzero;stroke:none"/><path d="m 4331.95,1388.93 c 21.74,-22 21.54,-57.46 -0.43,-79.2 -21.99,-21.75 -57.43,-21.56 -79.2,0.43 -21.74,21.99 -21.54,57.43 0.45,79.18 21.98,21.75 57.43,21.56 79.18,-0.41" inkscape:connector-curvature="0" id="path180" style="fill:#ffffff;fill-opacity:1;fill-rule:nonzero;stroke:none"/><path d="m 4418.17,1150.81 c 32.22,-21.42 70.21,-30.51 107.37,-27.18 37.08,3.42 73.35,19.17 101.98,47.43 l 31.85,31.77 c 28.35,28.08 44.29,64.17 47.88,101.16 3.69,36.99 -4.86,75.06 -25.47,107.37 l -21.96,-13.95 c 17.37,-27.27 24.66,-59.58 21.51,-90.9 -3.05,-31.32 -16.47,-61.56 -40.32,-85.23 l -31.85,-31.68 c -24.12,-23.85 -54.63,-37.17 -85.95,-40.05 -31.42,-2.79 -63.46,4.86 -90.55,22.95 l -14.49,-21.69" inkscape:connector-curvature="0" id="path182" style="fill:#ffffff;fill-opacity:1;fill-rule:nonzero;stroke:none"/><path d="m 4358.86,1829.86 0,0 c -0.54,-6.03 -0.72,-12.06 -0.81,-18.18 l -0.41,-75.88 c 0.02,0 0.04,0.01 0.05,0.01 l 0.36,75.87 c 0.09,6.12 0.27,12.15 0.81,18.18 m 337.06,240.26 c 0.07,0 0.13,0 0.19,0 -0.06,0 -0.12,0 -0.19,0" inkscape:connector-curvature="0" id="path184" style="fill:#edd38c;fill-opacity:1;fill-rule:nonzero;stroke:none"/><path d="m 4778.06,1470.68 c -0.01,0 -0.01,0 -0.01,0 l 168.16,-170.02 -168.15,170.02 m -418.56,601.28 -1.36,-242.1 0.72,0 0,0 c -0.54,-6.03 -0.72,-12.06 -0.81,-18.18 l -0.36,-75.87 c 15.33,2.79 30.85,4.19 46.38,4.19 66.41,0 132.82,-25.52 183.21,-76.46 l 133.74,-135.18 0.27,0.36 -9.36,8.91 c -100.08,101.16 -99.27,264.33 1.98,364.5 l 123.79,122.41 c -40.33,27.89 -89,44.59 -141.59,45.58 -0.06,0 -0.12,0 -0.19,0 -1.07,0.02 -2.17,0.03 -3.25,0.04 l 0,0 -12.96,-0.36 0,0.45 -320.21,1.71" inkscape:connector-curvature="0" id="path186" style="fill:#edd38c;fill-opacity:1;fill-rule:nonzero;stroke:none"/><path d="m 4357.69,1735.81 c -0.01,0 -0.03,-0.01 -0.05,-0.01 l 0,0 c 0.02,0 0.03,0 0.05,0.01 l 0,0" inkscape:connector-curvature="0" id="path188" style="fill:#d8c34d;fill-opacity:1;fill-rule:nonzero;stroke:none"/><path d="m 4404.07,1740 c -15.53,0 -31.05,-1.4 -46.38,-4.19 l 0,0 c -0.02,-0.01 -0.03,-0.01 -0.05,-0.01 l -0.94,-174.14 c -0.81,-142.29 114.03,-258.39 256.32,-259.11 l 12.96,0.36 0,-0.45 54.86,-0.31 c 0.18,1.45 0.35,2.9 0.49,4.36 3.15,31.32 -4.14,63.63 -21.51,90.9 l 21.96,13.95 c 20.61,-32.31 29.16,-70.38 25.47,-107.37 -0.06,-0.66 -0.14,-1.32 -0.21,-1.99 l 239.17,-1.34 -168.16,170.02 c -28.38,-22.68 -64.3,-36.38 -103.17,-36.38 -0.25,0 -0.5,0 -0.74,0 l -44.92,0.1 c -40.23,0.27 -77.04,14.76 -105.66,38.61 -5.78,4.82 -11.22,10.03 -16.3,15.58 -7.28,-3.26 -15.1,-4.89 -22.92,-4.89 -14.42,0 -28.84,5.53 -39.79,16.58 -21.69,22.05 -21.52,57.51 0.45,79.2 10.95,10.82 25.2,16.22 39.43,16.22 14.41,0 28.81,-5.53 39.77,-16.58 20.29,-20.55 21.43,-52.65 3.73,-74.55 3.86,-4.1 7.96,-7.97 12.28,-11.58 24.21,-20.16 55.18,-32.31 89.1,-32.49 l 44.91,-0.18 c 0.13,0 0.26,0 0.39,0 31.94,0 61.27,10.79 84.98,29.04 l -38.57,39 0,0 -133.74,135.18 c -50.39,50.94 -116.8,76.46 -183.21,76.46" inkscape:connector-curvature="0" id="path190" style="fill:#d8c34d;fill-opacity:1;fill-rule:nonzero;stroke:none"/><path d="m 4484.43,1595.7 c -14.23,0 -28.48,-5.4 -39.43,-16.22 -21.97,-21.69 -22.14,-57.15 -0.45,-79.2 10.95,-11.05 25.37,-16.58 39.79,-16.58 7.82,0 15.64,1.63 22.92,4.89 -20.05,21.92 -34.3,49.24 -40.4,79.55 l 25.57,5.04 c 5.24,-26.23 17.83,-49.84 35.5,-68.61 17.7,21.9 16.56,54 -3.73,74.55 -10.96,11.05 -25.36,16.58 -39.77,16.58" inkscape:connector-curvature="0" id="path192" style="fill:#edd38c;fill-opacity:1;fill-rule:nonzero;stroke:none"/><path d="m 4681.78,1411.36 -21.96,-13.95 c 17.37,-27.27 24.66,-59.58 21.51,-90.9 -0.14,-1.46 -0.31,-2.91 -0.49,-4.36 l 26.2,-0.15 c 0.07,0.67 0.15,1.33 0.21,1.99 3.69,36.99 -4.86,75.06 -25.47,107.37" inkscape:connector-curvature="0" id="path194" style="fill:#edd38c;fill-opacity:1;fill-rule:nonzero;stroke:none"/><path d="m 4844.68,1795.93 c -0.17,-30.87 -25.38,-55.8 -56.34,-55.62 -30.86,0.18 -55.88,25.38 -55.71,56.25 0.19,30.96 25.38,55.89 56.34,55.71 30.97,-0.18 55.89,-25.38 55.71,-56.34" inkscape:connector-curvature="0" id="path196" style="fill:#ffffff;fill-opacity:1;fill-rule:nonzero;stroke:none"/><path d="m 4574.24,1797.43 c -0.16,-30.93 -25.38,-55.85 -56.29,-55.69 -30.92,0.17 -55.86,25.39 -55.69,56.31 0.16,30.93 25.37,55.84 56.29,55.68 30.94,-0.18 55.86,-25.37 55.69,-56.3" inkscape:connector-curvature="0" id="path198" style="fill:#ffffff;fill-opacity:1;fill-rule:nonzero;stroke:none"/><path d="m 4466.86,1568.14 c 7.66,-37.98 28.09,-71.28 56.7,-95.13 28.62,-23.85 65.43,-38.34 105.66,-38.61 l 44.92,-0.1 c 39.86,-0.17 76.68,14.05 105.47,37.63 28.71,23.67 49.59,56.61 57.87,94.05 l -25.37,5.67 c -7.03,-31.59 -24.66,-59.58 -49.06,-79.56 -24.39,-19.98 -55.16,-31.86 -88.83,-31.77 l -44.91,0.18 c -33.92,0.18 -64.89,12.33 -89.1,32.49 -24.12,20.16 -41.4,48.24 -47.78,80.19 l -25.57,-5.04" inkscape:connector-curvature="0" id="path200" style="fill:#ffffff;fill-opacity:1;fill-rule:nonzero;stroke:none"/><path d="m 5350.09,1973.38 c 15.3,-26 25.61,-54.11 30.95,-82.97 l 0.1,0 c -5.4,28.84 -15.75,56.97 -31.05,82.97 m -2.45,4.08 c 0.8,-1.31 1.6,-2.62 2.38,-3.95 -0.79,1.33 -1.57,2.64 -2.38,3.95 m -2.53,4.05 c 0.82,-1.29 1.64,-2.59 2.43,-3.89 -0.79,1.3 -1.61,2.6 -2.43,3.89 m -2.63,4.03 c 0.8,-1.2 1.58,-2.4 2.35,-3.6 -0.77,1.21 -1.55,2.4 -2.35,3.6 m -2.71,3.98 c 0.85,-1.22 1.69,-2.45 2.51,-3.68 -0.82,1.23 -1.66,2.46 -2.51,3.68 m -2.81,3.98 c 0.8,-1.1 1.58,-2.21 2.36,-3.33 -0.78,1.11 -1.57,2.23 -2.36,3.33 m -2.87,3.89 c 0.87,-1.17 1.75,-2.35 2.61,-3.53 -0.86,1.18 -1.74,2.36 -2.61,3.53 m -3.04,3.97 c 0.84,-1.07 1.66,-2.14 2.48,-3.22 -0.82,1.08 -1.64,2.15 -2.48,3.22 m -3.04,3.82 c 0.94,-1.16 1.86,-2.31 2.78,-3.48 -0.92,1.17 -1.84,2.32 -2.78,3.48 m -3.24,3.9 c 0.9,-1.06 1.8,-2.13 2.68,-3.21 -0.89,1.08 -1.77,2.14 -2.68,3.21 m -3.13,3.63 c 0.98,-1.11 1.95,-2.23 2.91,-3.35 -0.96,1.12 -1.94,2.25 -2.91,3.35 m -3.55,3.97 c 0.99,-1.07 1.95,-2.15 2.91,-3.24 -0.96,1.09 -1.92,2.17 -2.91,3.24 m -3.18,3.42 c 1.03,-1.09 2.06,-2.19 3.06,-3.28 -1,1.09 -2.03,2.19 -3.06,3.28 m -13.29,12.89 0,0 9.44,-8.91 c 1.06,-1.07 2.11,-2.16 3.14,-3.24 -1.03,1.08 -2.08,2.16 -3.14,3.24 l -9.44,8.91" inkscape:connector-curvature="0" id="path202" style="fill:#ee988a;fill-opacity:1;fill-rule:nonzero;stroke:none"/><path d="m 5381.04,1890.41 c 0.07,-0.37 0.15,-0.74 0.21,-1.1 l 0.08,-0.01 c -0.06,0.37 -0.13,0.74 -0.19,1.11 l -0.1,0 m -476.06,199.82 c -4.5,-3.96 -9,-8.02 -13.32,-12.33 l -53.94,-53.35 c 0.01,0 0.02,-0.01 0.03,-0.02 l 53.91,53.37 c 4.32,4.31 8.82,8.37 13.32,12.33 l 0,0 m 170,169.02 -170.44,-168.57 170.44,168.57" inkscape:connector-curvature="0" id="path204" style="fill:#ee988a;fill-opacity:1;fill-rule:nonzero;stroke:none"/><path d="m 4948.03,1633.09 -0.39,-72.06 c -0.09,-6.12 -0.27,-12.15 -0.72,-18.18 l 0.63,0 -1.34,-242.19 1.79,320.3 0.45,0 -0.42,12.13 m 128.67,627.87 -1.72,-1.71 -170.44,-168.57 0.44,-0.45 0,0 c -4.5,-3.96 -9,-8.02 -13.32,-12.33 l -53.91,-53.37 c -0.01,0.01 -0.02,0.02 -0.03,0.02 l -0.02,-0.01 c 67.66,-46.79 111.8,-125.06 111.29,-213.49 l -0.93,-173.15 c 2.91,140 117.37,252.35 257.82,252.35 0.43,0 0.88,0 1.32,0 l 174.05,-0.94 c -0.06,0.36 -0.14,0.73 -0.21,1.1 -5.34,28.86 -15.65,56.97 -30.95,82.97 -0.03,0.05 -0.05,0.08 -0.07,0.13 -0.78,1.33 -1.58,2.64 -2.38,3.95 -0.03,0.06 -0.06,0.11 -0.1,0.16 -0.79,1.3 -1.61,2.6 -2.43,3.89 -0.09,0.14 -0.18,0.29 -0.28,0.43 -0.77,1.2 -1.55,2.4 -2.35,3.6 -0.07,0.1 -0.13,0.2 -0.2,0.3 -0.82,1.23 -1.66,2.46 -2.51,3.68 -0.15,0.21 -0.29,0.43 -0.45,0.65 -0.78,1.12 -1.56,2.23 -2.36,3.33 -0.1,0.13 -0.17,0.24 -0.26,0.36 -0.86,1.18 -1.74,2.36 -2.61,3.53 -0.19,0.25 -0.38,0.5 -0.56,0.75 -0.82,1.08 -1.64,2.15 -2.48,3.22 -0.09,0.11 -0.17,0.23 -0.26,0.34 -0.92,1.17 -1.84,2.32 -2.78,3.48 -0.18,0.23 -0.38,0.46 -0.56,0.69 -0.88,1.08 -1.78,2.15 -2.68,3.21 -0.08,0.1 -0.16,0.19 -0.22,0.28 -0.96,1.12 -1.93,2.24 -2.91,3.35 -0.21,0.25 -0.43,0.48 -0.64,0.73 -0.96,1.09 -1.92,2.17 -2.91,3.24 -0.04,0.04 -0.08,0.09 -0.12,0.14 -1,1.09 -2.03,2.19 -3.06,3.28 -0.24,0.24 -0.47,0.49 -0.71,0.74 -1.03,1.08 -2.08,2.17 -3.14,3.24 l -9.44,8.91 0.36,0.27 -225.28,227.7" inkscape:connector-curvature="0" id="path206" style="fill:#ee988a;fill-opacity:1;fill-rule:nonzero;stroke:none"/><path d="m 5381.25,1889.31 c 0,-0.02 0,-0.03 0.02,-0.05 l 0.07,0 c -0.01,0.02 -0.01,0.03 -0.01,0.04 l -0.08,0.01" inkscape:connector-curvature="0" id="path208" style="fill:#d4567c;fill-opacity:1;fill-rule:nonzero;stroke:none"/><path d="m 5205.88,1890.25 c -140.45,0 -254.91,-112.35 -257.82,-252.35 l -0.03,-4.81 0.42,-12.13 -0.45,0 -1.79,-320.3 170.02,168.22 c -22.84,28.48 -36.64,64.68 -36.38,103.85 l 0.1,45 c 0.26,40.14 14.75,77.04 38.6,105.66 23.86,28.62 57.16,49.05 95.14,56.61 l 5.04,-25.47 c -31.96,-6.39 -60.03,-23.67 -80.2,-47.88 -20.15,-24.21 -32.3,-55.08 -32.58,-89.01 l -0.09,-45 c -0.17,-32.01 10.71,-61.55 29.04,-85.3 l 39,38.59 0.01,-0.01 8.73,8.63 0.44,0.47 c 0.84,0.83 1.68,1.64 2.53,2.46 l 123.48,122.1 c 62.86,62.2 87,148.76 72.25,229.68 l -0.07,0 c -0.02,0.02 -0.02,0.03 -0.02,0.05 l -174.05,0.94 c -0.44,0 -0.89,0 -1.32,0" inkscape:connector-curvature="0" id="path210" style="fill:#d4567c;fill-opacity:1;fill-rule:nonzero;stroke:none"/><path d="m 5213.69,1780 c -37.98,-7.56 -71.28,-27.99 -95.14,-56.61 -23.85,-28.62 -38.34,-65.52 -38.6,-105.66 l -0.1,-45 c -0.26,-39.17 13.54,-75.37 36.38,-103.85 l 2.11,2.08 -0.41,0.52 c 3.93,3.31 7.79,6.83 11.54,10.49 l 5.43,5.37 c -18.33,23.75 -29.21,53.29 -29.04,85.3 l 0.09,45 c 0.28,33.93 12.43,64.8 32.58,89.01 20.17,24.21 48.24,41.49 80.2,47.88 l -5.04,25.47" inkscape:connector-curvature="0" id="path212" style="fill:#ee988a;fill-opacity:1;fill-rule:nonzero;stroke:none"/><path d="m 5116.23,1468.88 -170.02,-168.22 170.04,168.19 c 0,0.01 0,0.02 -0.02,0.03 m 57.67,57.05 -39,-38.59 0,0 39.01,38.58 -0.01,0.01 m 11.71,11.55 c -0.85,-0.82 -1.69,-1.63 -2.53,-2.46 l -0.44,-0.47 2.97,2.93" inkscape:connector-curvature="0" id="path214" style="fill:#773770;fill-opacity:1;fill-rule:nonzero;stroke:none"/><path d="m 5118.34,1470.96 -2.11,-2.08 c 0.02,-0.01 0.02,-0.02 0.02,-0.03 l 2.13,2.09 -0.04,0.02 m 16.56,16.38 -5.43,-5.37 c 0.62,0.61 1.25,1.22 1.86,1.84 l 3.57,3.53 0,0" inkscape:connector-curvature="0" id="path216" style="fill:#86627d;fill-opacity:1;fill-rule:nonzero;stroke:none"/><path d="m 4788.68,1740.31 c -0.12,0 -0.23,0 -0.34,0 -30.86,0.18 -55.88,25.38 -55.71,56.25 0.19,30.85 25.21,55.71 56.01,55.71 0.11,0 0.22,0 0.33,0 30.97,-0.18 55.89,-25.38 55.71,-56.34 -0.17,-30.76 -25.2,-55.62 -56,-55.62 m 49.02,284.23 -123.79,-122.41 c -101.25,-100.17 -102.06,-263.34 -1.98,-364.5 l 9.36,-8.91 -0.27,-0.36 38.59,-39 c 1.16,0.89 2.31,1.8 3.44,2.73 24.4,19.98 42.03,47.97 49.06,79.56 l 25.37,-5.67 c -8.28,-37.44 -29.16,-70.38 -57.87,-94.05 -0.51,-0.42 -1.03,-0.83 -1.55,-1.25 l 168.15,-170.02 1.34,242.19 -0.63,0 c 0.45,6.03 0.63,12.06 0.72,18.18 l 0.39,72.06 -0.03,0.84 c 0.01,1.33 0.03,2.65 0.06,3.97 l 0.93,173.15 c 0.51,88.43 -43.63,166.7 -111.29,213.49" inkscape:connector-curvature="0" id="path218" style="fill:#dd7e4c;fill-opacity:1;fill-rule:nonzero;stroke:none"/><path d="m 4948.06,1637.9 c -0.03,-1.32 -0.05,-2.64 -0.06,-3.97 l 0.03,-0.84 0.03,4.81" inkscape:connector-curvature="0" id="path220" style="fill:#c54744;fill-opacity:1;fill-rule:nonzero;stroke:none"/><path d="m 4721.02,1528.36 0,0 38.57,-39 c 0.02,0 0.02,0 0.02,0 l -38.59,39" inkscape:connector-curvature="0" id="path222" style="fill:#c9742a;fill-opacity:1;fill-rule:nonzero;stroke:none"/><path d="m 4788.64,1852.27 c -30.8,0 -55.82,-24.86 -56.01,-55.71 -0.17,-30.87 24.85,-56.07 55.71,-56.25 0.11,0 0.22,0 0.34,0 30.8,0 55.83,24.86 56,55.62 0.18,30.96 -24.74,56.16 -55.71,56.34 -0.11,0 -0.22,0 -0.33,0" inkscape:connector-curvature="0" id="path224" style="fill:#ee988a;fill-opacity:1;fill-rule:nonzero;stroke:none"/><path d="m 4812.11,1571.65 c -7.03,-31.59 -24.66,-59.58 -49.06,-79.56 -1.13,-0.93 -2.28,-1.84 -3.44,-2.73 0,0 0,0 -0.02,0 l 18.47,-18.68 c 0.52,0.42 1.04,0.83 1.55,1.25 28.71,23.67 49.59,56.61 57.87,94.05 l -25.37,5.67" inkscape:connector-curvature="0" id="path226" style="fill:#ee988a;fill-opacity:1;fill-rule:nonzero;stroke:none"/><path d="m 5224.61,1722.71 c -21.99,-21.75 -57.45,-21.54 -79.2,0.43 -21.73,22 -21.55,57.45 0.43,79.18 21.99,21.76 57.44,21.57 79.2,-0.43 21.73,-21.98 21.55,-57.44 -0.43,-79.18" inkscape:connector-curvature="0" id="path228" style="fill:#ffffff;fill-opacity:1;fill-rule:nonzero;stroke:none"/><path d="m 5034.43,1914.98 c -21.98,-21.76 -57.43,-21.56 -79.18,0.41 -21.75,21.99 -21.54,57.44 0.43,79.21 21.99,21.73 57.43,21.53 79.19,-0.46 21.74,-21.97 21.55,-57.4 -0.44,-79.16" inkscape:connector-curvature="0" id="path230" style="fill:#ffffff;fill-opacity:1;fill-rule:nonzero;stroke:none"/><path d="m 4796.38,1828.75 c -21.47,-32.22 -30.54,-70.23 -27.2,-107.34 3.34,-37.11 19.18,-73.43 47.44,-101.98 l 31.72,-31.86 c 28.04,-28.35 64.16,-44.29 101.15,-47.92 37.01,-3.63 75.08,4.92 107.43,25.52 l -13.99,21.96 c -27.26,-17.38 -59.54,-24.67 -90.88,-21.56 -31.35,3.1 -61.6,16.44 -85.22,40.33 l -31.76,31.89 c -23.82,24.1 -37.12,54.6 -39.95,85.96 -2.83,31.34 4.82,63.43 22.9,90.55 l -21.64,14.45" inkscape:connector-curvature="0" id="path232" style="fill:#ffffff;fill-opacity:1;fill-rule:nonzero;stroke:none"/></g></g></svg>